<?xml version="1.0" encoding="utf-8" standalone="no"?>
<!DOCTYPE svg PUBLIC "-//W3C//DTD SVG 1.1//EN"
  "http://www.w3.org/Graphics/SVG/1.1/DTD/svg11.dtd">
<svg xmlns:xlink="http://www.w3.org/1999/xlink" width="172.8pt" height="106.796273pt" viewBox="0 0 172.8 106.796273" xmlns="http://www.w3.org/2000/svg" version="1.1">
 <metadata>
  <rdf:RDF xmlns:dc="http://purl.org/dc/elements/1.1/" xmlns:cc="http://creativecommons.org/ns#" xmlns:rdf="http://www.w3.org/1999/02/22-rdf-syntax-ns#">
   <cc:Work>
    <dc:type rdf:resource="http://purl.org/dc/dcmitype/StillImage"/>
    <dc:date>2023-08-24T11:22:16.354411</dc:date>
    <dc:format>image/svg+xml</dc:format>
    <dc:creator>
     <cc:Agent>
      <dc:title>Matplotlib v3.7.1, https://matplotlib.org/</dc:title>
     </cc:Agent>
    </dc:creator>
   </cc:Work>
  </rdf:RDF>
 </metadata>
 <defs>
  <style type="text/css">*{stroke-linejoin: round; stroke-linecap: butt}</style>
 </defs>
 <g id="figure_1">
  <g id="patch_1">
   <path d="M 0 106.796273 
L 172.8 106.796273 
L 172.8 0 
L 0 0 
z
" style="fill: #ffffff"/>
  </g>
  <g id="axes_1">
   <g id="patch_2">
    <path d="M 52.008426 81.480597 
L 156.949698 81.480597 
L 156.949698 12.96 
L 52.008426 12.96 
z
" style="fill: #ffffff"/>
   </g>
   <g id="matplotlib.axis_1">
    <g id="xtick_1">
     <g id="line2d_1">
      <defs>
       <path id="m2385b02aa9" d="M 0 0 
L 0 -6 
" style="stroke: #262626; stroke-width: 1.25"/>
      </defs>
      <g>
       <use xlink:href="#m2385b02aa9" x="94.18321" y="81.480597" style="fill: #262626; stroke: #262626; stroke-width: 1.25"/>
      </g>
     </g>
     <g id="text_1">
      <!-- $\tau_r^{(1)}$ -->
      <g style="fill: #262626" transform="translate(86.342792 94.613829) scale(0.1 -0.1)">
       <defs>
        <path id="CMMI12-1c" d="M 1837 2408 
L 2899 2408 
C 2982 2408 3194 2408 3194 2612 
C 3194 2752 3072 2752 2957 2752 
L 1197 2752 
C 1050 2752 832 2752 538 2440 
C 371 2255 166 1917 166 1879 
C 166 1841 198 1828 237 1828 
C 282 1828 288 1847 320 1885 
C 653 2408 986 2408 1146 2408 
L 1677 2408 
L 1011 223 
C 979 127 979 114 979 95 
C 979 25 1024 -64 1152 -64 
C 1350 -64 1382 108 1402 203 
L 1837 2408 
z
" transform="scale(0.015625)"/>
        <path id="CMR17-28" d="M 1958 -1561 
C 1958 -1555 1958 -1542 1939 -1523 
C 1645 -1224 858 -407 858 1581 
C 858 3569 1632 4379 1946 4697 
C 1946 4704 1958 4717 1958 4736 
C 1958 4755 1939 4768 1914 4768 
C 1843 4768 1299 4296 986 3594 
C 666 2887 576 2199 576 1588 
C 576 1128 621 351 1005 -471 
C 1312 -1135 1837 -1600 1914 -1600 
C 1946 -1600 1958 -1587 1958 -1561 
z
" transform="scale(0.015625)"/>
        <path id="CMR17-31" d="M 1702 4058 
C 1702 4192 1696 4192 1606 4192 
C 1357 3916 979 3827 621 3827 
C 602 3827 570 3827 563 3808 
C 557 3795 557 3782 557 3648 
C 755 3648 1088 3686 1344 3839 
L 1344 461 
C 1344 236 1331 160 781 160 
L 589 160 
L 589 0 
C 896 0 1216 0 1523 0 
C 1830 0 2150 0 2458 0 
L 2458 160 
L 2266 160 
C 1715 160 1702 230 1702 458 
L 1702 4058 
z
" transform="scale(0.015625)"/>
        <path id="CMR17-29" d="M 1683 1581 
C 1683 2040 1638 2817 1254 3639 
C 947 4303 422 4768 346 4768 
C 326 4768 301 4761 301 4729 
C 301 4717 307 4710 314 4697 
C 621 4378 1402 3568 1402 1584 
C 1402 -407 627 -1217 314 -1537 
C 307 -1549 301 -1556 301 -1568 
C 301 -1600 326 -1600 346 -1600 
C 416 -1600 960 -1128 1274 -426 
C 1594 281 1683 969 1683 1581 
z
" transform="scale(0.015625)"/>
        <path id="CMMI12-72" d="M 2490 2612 
C 2291 2574 2189 2433 2189 2293 
C 2189 2139 2310 2088 2400 2088 
C 2579 2088 2726 2242 2726 2433 
C 2726 2638 2528 2816 2208 2816 
C 1952 2816 1658 2701 1389 2312 
C 1344 2650 1088 2816 832 2816 
C 582 2816 454 2625 378 2484 
C 269 2254 173 1871 173 1839 
C 173 1814 198 1782 243 1782 
C 294 1782 301 1788 339 1935 
C 435 2318 557 2689 813 2689 
C 966 2689 1011 2580 1011 2395 
C 1011 2254 947 2005 902 1807 
L 723 1118 
C 698 996 627 709 595 594 
C 550 428 480 128 480 96 
C 480 6 550 -64 646 -64 
C 717 -64 838 -19 877 109 
C 896 160 1133 1124 1171 1271 
C 1203 1411 1242 1546 1274 1686 
C 1299 1775 1325 1878 1344 1961 
C 1363 2018 1536 2331 1696 2472 
C 1773 2542 1939 2689 2202 2689 
C 2304 2689 2406 2670 2490 2612 
z
" transform="scale(0.015625)"/>
       </defs>
       <use xlink:href="#CMMI12-1c" transform="scale(0.996264)"/>
       <use xlink:href="#CMR17-28" transform="translate(53.491165 51.691943) scale(0.697382)"/>
       <use xlink:href="#CMR17-31" transform="translate(78.187586 51.691943) scale(0.697382)"/>
       <use xlink:href="#CMR17-29" transform="translate(110.170768 51.691943) scale(0.697382)"/>
       <use xlink:href="#CMMI12-72" transform="translate(42.363841 -11.650281) scale(0.697382)"/>
      </g>
     </g>
    </g>
    <g id="xtick_2">
     <g id="line2d_2">
      <g>
       <use xlink:href="#m2385b02aa9" x="106.056697" y="81.480597" style="fill: #262626; stroke: #262626; stroke-width: 1.25"/>
      </g>
     </g>
     <g id="text_2">
      <!-- $\tau_r^{(2)}$ -->
      <g style="fill: #262626" transform="translate(98.216279 94.613829) scale(0.1 -0.1)">
       <defs>
        <path id="CMR17-32" d="M 2669 989 
L 2554 989 
C 2490 536 2438 459 2413 420 
C 2381 369 1920 369 1830 369 
L 602 369 
C 832 619 1280 1072 1824 1597 
C 2214 1967 2669 2402 2669 3035 
C 2669 3790 2067 4224 1395 4224 
C 691 4224 262 3604 262 3030 
C 262 2780 448 2748 525 2748 
C 589 2748 781 2787 781 3010 
C 781 3207 614 3264 525 3264 
C 486 3264 448 3258 422 3245 
C 544 3790 915 4058 1306 4058 
C 1862 4058 2227 3617 2227 3035 
C 2227 2479 1901 2000 1536 1584 
L 262 146 
L 262 0 
L 2515 0 
L 2669 989 
z
" transform="scale(0.015625)"/>
       </defs>
       <use xlink:href="#CMMI12-1c" transform="scale(0.996264)"/>
       <use xlink:href="#CMR17-28" transform="translate(53.491165 51.691943) scale(0.697382)"/>
       <use xlink:href="#CMR17-32" transform="translate(78.187586 51.691943) scale(0.697382)"/>
       <use xlink:href="#CMR17-29" transform="translate(110.170768 51.691943) scale(0.697382)"/>
       <use xlink:href="#CMMI12-72" transform="translate(42.363841 -11.650281) scale(0.697382)"/>
      </g>
     </g>
    </g>
   </g>
   <g id="matplotlib.axis_2">
    <g id="text_3">
     <!-- Counts -->
     <g style="fill: #262626" transform="translate(46.071248 61.749166) rotate(-90) scale(0.1 -0.1)">
      <defs>
       <path id="CMSS17-43" d="M 3501 714 
C 3072 427 2874 344 2355 344 
C 1459 344 934 1303 934 2179 
C 934 3112 1472 4032 2381 4032 
C 2790 4032 3059 3918 3386 3715 
L 3475 4217 
C 3168 4370 2778 4440 2387 4440 
C 1158 4440 397 3316 397 2179 
C 397 927 1299 -64 2323 -64 
C 2874 -64 3066 -19 3539 280 
L 3501 714 
z
" transform="scale(0.015625)"/>
       <path id="CMSS17-6f" d="M 2829 1356 
C 2829 2176 2221 2816 1504 2816 
C 768 2816 173 2157 173 1356 
C 173 544 787 -64 1498 -64 
C 2227 -64 2829 563 2829 1356 
z
M 1504 337 
C 1050 337 659 709 659 1408 
C 659 2151 1114 2427 1498 2427 
C 1914 2427 2342 2126 2342 1408 
C 2342 683 1926 337 1504 337 
z
" transform="scale(0.015625)"/>
       <path id="CMSS17-75" d="M 2618 2739 
L 2131 2739 
L 2131 972 
C 2131 498 1786 306 1421 306 
C 998 306 960 447 960 709 
L 960 2739 
L 474 2739 
L 474 678 
C 474 179 646 -64 1088 -64 
C 1306 -64 1798 -13 2144 306 
L 2144 0 
L 2618 0 
L 2618 2739 
z
" transform="scale(0.015625)"/>
       <path id="CMSS17-6e" d="M 2618 1877 
C 2618 2283 2522 2816 1798 2816 
C 1389 2816 1120 2606 941 2389 
L 941 2758 
L 474 2758 
L 474 0 
L 960 0 
L 960 1559 
C 960 1964 1114 2428 1549 2428 
C 2112 2428 2131 2048 2131 1829 
L 2131 0 
L 2618 0 
L 2618 1877 
z
" transform="scale(0.015625)"/>
       <path id="CMSS17-74" d="M 1069 2368 
L 1901 2368 
L 1901 2737 
L 1069 2737 
L 1069 3520 
L 614 3520 
L 614 2737 
L 109 2737 
L 109 2368 
L 602 2368 
L 602 749 
C 602 384 685 -64 1107 -64 
C 1427 -64 1722 25 2003 172 
L 1901 548 
C 1747 414 1562 337 1363 337 
C 1082 337 1069 696 1069 856 
L 1069 2368 
z
" transform="scale(0.015625)"/>
       <path id="CMSS17-73" d="M 2061 2627 
C 1683 2807 1389 2807 1197 2807 
C 742 2807 198 2648 198 2003 
C 198 1359 902 1218 1094 1179 
C 1389 1122 1715 1058 1715 740 
C 1715 337 1254 337 1171 337 
C 915 337 563 407 243 638 
L 166 210 
C 531 0 883 -64 1178 -64 
C 1965 -64 2163 416 2163 781 
C 2163 1094 1984 1305 1862 1401 
C 1651 1568 1574 1587 1050 1696 
C 960 1709 646 1779 646 2066 
C 646 2432 1050 2432 1139 2432 
C 1555 2432 1811 2303 1984 2208 
L 2061 2627 
z
" transform="scale(0.015625)"/>
      </defs>
      <use xlink:href="#CMSS17-43" transform="scale(0.996264)"/>
      <use xlink:href="#CMSS17-6f" transform="translate(59.855772 0) scale(0.996264)"/>
      <use xlink:href="#CMSS17-75" transform="translate(106.699395 0) scale(0.996264)"/>
      <use xlink:href="#CMSS17-6e" transform="translate(154.904338 0) scale(0.996264)"/>
      <use xlink:href="#CMSS17-74" transform="translate(203.109281 0) scale(0.996264)"/>
      <use xlink:href="#CMSS17-73" transform="translate(236.940848 0) scale(0.996264)"/>
     </g>
    </g>
   </g>
   <g id="patch_3">
    <path d="M 58.310758 16.074573 
L 59.843032 20.728288 
L 58.353469 19.332173 
L 58.353469 76.84672 
L 58.268048 76.84672 
L 58.268048 19.332173 
L 56.778484 20.728288 
z
" style="fill: #1a1a1a; stroke: #1a1a1a; stroke-linejoin: miter"/>
   </g>
   <g id="patch_4">
    <path d="M 152.17964 76.84672 
L 147.486196 78.366024 
L 148.89423 76.962223 
L 58.310758 76.962223 
L 58.310758 76.731218 
L 148.89423 76.731218 
L 147.486196 75.327417 
z
" style="fill: #1a1a1a; stroke: #1a1a1a; stroke-linejoin: miter"/>
   </g>
   <g id="LineCollection_1">
    <path d="M 94.18321 74.08435 
L 94.18321 18.836943 
" clip-path="url(#p8836c79d36)" style="fill: none; stroke-dasharray: 5.55,2.4; stroke-dashoffset: 0; stroke: #4c72b0; stroke-width: 1.5"/>
   </g>
   <g id="LineCollection_2">
    <path d="M 106.056697 74.08435 
L 106.056697 18.836943 
" clip-path="url(#p8836c79d36)" style="fill: none; stroke-dasharray: 5.55,2.4; stroke-dashoffset: 0; stroke: #dd8452; stroke-width: 1.5"/>
   </g>
   <g id="line2d_3">
    <path d="M 62.577526 18.841999 
L 71.546706 18.964161 
L 76.41569 19.255673 
L 78.209526 19.059673 
L 80.259625 18.838432 
L 81.028411 18.942278 
L 81.797198 19.275683 
L 82.565985 19.939592 
L 83.334772 21.03928 
L 84.103559 22.674577 
L 84.872346 24.928462 
L 85.641133 27.855039 
L 86.666182 32.820418 
L 87.947494 40.554509 
L 92.047691 67.489798 
L 92.816478 70.730312 
L 93.329002 72.237664 
L 93.841527 73.159586 
L 94.097789 73.388638 
L 94.354051 73.458527 
L 94.610314 73.367196 
L 94.866576 73.113731 
L 95.379101 72.122563 
L 95.891625 70.501169 
L 96.660412 66.968627 
L 97.429199 62.292459 
L 98.710511 52.71426 
L 101.273134 32.603966 
L 102.298183 26.356558 
L 103.06697 22.851953 
L 103.835757 20.457638 
L 104.348281 19.474269 
L 104.860806 18.951857 
L 105.37333 18.847031 
L 105.885855 19.102891 
L 106.39838 19.652043 
L 107.167167 20.861785 
L 109.473527 24.899759 
L 110.242314 25.682432 
L 110.754839 25.934802 
L 111.267363 25.958834 
L 111.779888 25.759595 
L 112.292413 25.355304 
L 113.0612 24.431838 
L 114.342511 22.402101 
L 115.623823 20.411698 
L 116.39261 19.521353 
L 117.161396 18.983372 
L 117.673921 18.844081 
L 118.186446 18.880939 
L 118.955233 19.238994 
L 119.72402 19.888515 
L 122.799167 22.977192 
L 123.567954 23.288575 
L 124.336741 23.278776 
L 125.105528 22.954277 
L 125.874315 22.365623 
L 127.155626 21.04283 
L 128.6932 19.531798 
L 129.461987 19.050287 
L 130.230774 18.842929 
L 130.999561 18.930682 
L 131.768348 19.292633 
L 132.793397 20.095141 
L 135.099758 22.118834 
L 135.868545 22.508055 
L 136.637332 22.63979 
L 137.406119 22.49643 
L 138.174905 22.099956 
L 139.199955 21.282228 
L 141.506315 19.314659 
L 142.275102 18.956739 
L 143.043889 18.855674 
L 143.812676 19.025747 
L 144.581463 19.442435 
L 145.606512 20.274123 
L 147.656611 22.052073 
L 147.912873 22.213673 
L 147.912873 22.213673 
" clip-path="url(#p8836c79d36)" style="fill: none; stroke: #4c72b0; stroke-width: 1.5; stroke-linecap: round"/>
   </g>
   <g id="line2d_4">
    <path d="M 62.577526 18.907487 
L 67.702772 18.851501 
L 74.878116 18.864405 
L 83.847297 18.842937 
L 93.329002 19.01903 
L 94.354051 19.41835 
L 95.122838 19.95849 
L 95.891625 20.770773 
L 96.660412 21.909435 
L 97.429199 23.416418 
L 98.454248 26.033375 
L 99.479297 29.318449 
L 101.016871 35.192552 
L 103.323232 44.223329 
L 104.348281 47.34137 
L 105.117068 48.978903 
L 105.629593 49.663057 
L 106.142117 49.987641 
L 106.654642 49.934735 
L 107.167167 49.497253 
L 107.679691 48.679612 
L 108.448478 46.778806 
L 109.217265 44.163729 
L 110.242314 39.836706 
L 113.573724 24.807124 
L 114.342511 22.316391 
L 115.111298 20.480755 
L 115.623823 19.641664 
L 116.136347 19.106959 
L 116.648872 18.860561 
L 117.161396 18.875774 
L 117.673921 19.11682 
L 118.442708 19.806453 
L 119.72402 21.420287 
L 121.005331 22.95574 
L 121.774118 23.579172 
L 122.542905 23.876818 
L 123.05543 23.878372 
L 123.824216 23.594687 
L 124.593003 23.014927 
L 125.618053 21.932397 
L 127.668151 19.695476 
L 128.436938 19.149163 
L 129.205725 18.86948 
L 129.974512 18.875207 
L 130.743299 19.146696 
L 131.768348 19.824788 
L 134.330971 21.812423 
L 135.099758 22.1324 
L 135.868545 22.222912 
L 136.637332 22.074437 
L 137.406119 21.710755 
L 138.68743 20.780255 
L 140.481266 19.417967 
L 141.506315 18.948182 
L 142.275102 18.836943 
L 143.043889 18.946281 
L 143.812676 19.255514 
L 145.093988 20.075142 
L 146.887824 21.285445 
L 147.912873 21.690918 
L 147.912873 21.690918 
" clip-path="url(#p8836c79d36)" style="fill: none; stroke: #dd8452; stroke-width: 1.5; stroke-linecap: round"/>
   </g>
   <g id="line2d_5">
    <path d="M 62.577526 18.912542 
L 67.959034 18.856317 
L 71.802968 19.048403 
L 75.903165 19.284458 
L 77.697002 19.135874 
L 80.259625 18.838919 
L 81.028411 18.942622 
L 81.797198 19.275703 
L 82.565985 19.939974 
L 83.334772 21.041989 
L 84.103559 22.682825 
L 84.872346 24.946114 
L 85.641133 27.885495 
L 86.666182 32.869739 
L 87.947494 40.618494 
L 92.047691 67.500953 
L 92.816478 70.809893 
L 93.585264 73.022559 
L 94.097789 73.829363 
L 94.610314 74.08435 
L 94.866576 74.005975 
L 95.379101 73.449803 
L 95.891625 72.390884 
L 96.660412 69.975821 
L 97.685461 65.597264 
L 100.504347 52.412687 
L 101.273134 49.894847 
L 102.04192 48.203557 
L 102.554445 47.558969 
L 103.06697 47.287116 
L 103.579494 47.353872 
L 104.092019 47.707133 
L 104.860806 48.623703 
L 106.654642 51.095149 
L 107.167167 51.494683 
L 107.679691 51.615438 
L 108.192216 51.398992 
L 108.70474 50.803694 
L 109.217265 49.806832 
L 109.986052 47.558671 
L 110.754839 44.482928 
L 111.779888 39.402628 
L 114.598773 24.764731 
L 115.36756 21.956373 
L 116.136347 20.052575 
L 116.648872 19.323231 
L 117.161396 19.022201 
L 117.673921 19.123957 
L 118.186446 19.584732 
L 118.69897 20.345153 
L 119.467757 21.888794 
L 121.774118 26.873003 
L 122.542905 27.838671 
L 123.05543 28.147052 
L 123.567954 28.167455 
L 124.080479 27.902998 
L 124.593003 27.373859 
L 125.36179 26.165331 
L 126.643102 23.496568 
L 127.924413 20.875967 
L 128.6932 19.719378 
L 129.205725 19.215092 
L 129.718249 18.953897 
L 130.230774 18.944184 
L 130.743299 19.178835 
L 131.255823 19.635918 
L 132.02461 20.658657 
L 135.099758 25.409516 
L 135.612282 25.78218 
L 136.124807 25.939222 
L 136.637332 25.871848 
L 137.149856 25.585458 
L 137.918643 24.790472 
L 138.943692 23.240513 
L 140.993791 19.976225 
L 141.762578 19.218889 
L 142.275102 18.956739 
L 142.787627 18.908186 
L 143.300152 19.074726 
L 143.812676 19.444283 
L 144.581463 20.321855 
L 145.862775 22.303352 
L 147.144086 24.243217 
L 147.912873 25.063393 
L 147.912873 25.063393 
" clip-path="url(#p8836c79d36)" style="fill: none; stroke: #000000; stroke-width: 1.5; stroke-linecap: round"/>
   </g>
  </g>
 </g>
 <defs>
  <clipPath id="p8836c79d36">
   <rect x="52.008426" y="12.96" width="104.941272" height="68.520597"/>
  </clipPath>
 </defs>
</svg>
