<?xml version="1.0" encoding="utf-8" standalone="no"?>
<!DOCTYPE svg PUBLIC "-//W3C//DTD SVG 1.1//EN"
  "http://www.w3.org/Graphics/SVG/1.1/DTD/svg11.dtd">
<svg xmlns:xlink="http://www.w3.org/1999/xlink" width="172.8pt" height="106.796273pt" viewBox="0 0 172.8 106.796273" xmlns="http://www.w3.org/2000/svg" version="1.1">
 <metadata>
  <rdf:RDF xmlns:dc="http://purl.org/dc/elements/1.1/" xmlns:cc="http://creativecommons.org/ns#" xmlns:rdf="http://www.w3.org/1999/02/22-rdf-syntax-ns#">
   <cc:Work>
    <dc:type rdf:resource="http://purl.org/dc/dcmitype/StillImage"/>
    <dc:date>2023-08-24T10:16:35.806453</dc:date>
    <dc:format>image/svg+xml</dc:format>
    <dc:creator>
     <cc:Agent>
      <dc:title>Matplotlib v3.7.1, https://matplotlib.org/</dc:title>
     </cc:Agent>
    </dc:creator>
   </cc:Work>
  </rdf:RDF>
 </metadata>
 <defs>
  <style type="text/css">*{stroke-linejoin: round; stroke-linecap: butt}</style>
 </defs>
 <g id="figure_1">
  <g id="patch_1">
   <path d="M 0 106.796273 
L 172.8 106.796273 
L 172.8 0 
L 0 0 
z
" style="fill: #ffffff"/>
  </g>
  <g id="axes_1">
   <g id="patch_2">
    <path d="M 42.045756 68.62492 
L 159.84 68.62492 
L 159.84 12.96 
L 42.045756 12.96 
z
" style="fill: #ffffff"/>
   </g>
   <g id="matplotlib.axis_1">
    <g id="text_1">
     <!-- $\tau$ -->
     <g style="fill: #262626" transform="translate(98.765276 79.543418) scale(0.1 -0.1)">
      <defs>
       <path id="CMMI12-1c" d="M 1837 2408 
L 2899 2408 
C 2982 2408 3194 2408 3194 2612 
C 3194 2752 3072 2752 2957 2752 
L 1197 2752 
C 1050 2752 832 2752 538 2440 
C 371 2255 166 1917 166 1879 
C 166 1841 198 1828 237 1828 
C 282 1828 288 1847 320 1885 
C 653 2408 986 2408 1146 2408 
L 1677 2408 
L 1011 223 
C 979 127 979 114 979 95 
C 979 25 1024 -64 1152 -64 
C 1350 -64 1382 108 1402 203 
L 1837 2408 
z
" transform="scale(0.015625)"/>
      </defs>
      <use xlink:href="#CMMI12-1c" transform="scale(0.996264)"/>
     </g>
    </g>
   </g>
   <g id="matplotlib.axis_2">
    <g id="text_2">
     <!-- Counts -->
     <g style="fill: #262626" transform="translate(36.108577 55.321328) rotate(-90) scale(0.1 -0.1)">
      <defs>
       <path id="CMSS17-43" d="M 3501 714 
C 3072 427 2874 344 2355 344 
C 1459 344 934 1303 934 2179 
C 934 3112 1472 4032 2381 4032 
C 2790 4032 3059 3918 3386 3715 
L 3475 4217 
C 3168 4370 2778 4440 2387 4440 
C 1158 4440 397 3316 397 2179 
C 397 927 1299 -64 2323 -64 
C 2874 -64 3066 -19 3539 280 
L 3501 714 
z
" transform="scale(0.015625)"/>
       <path id="CMSS17-6f" d="M 2829 1356 
C 2829 2176 2221 2816 1504 2816 
C 768 2816 173 2157 173 1356 
C 173 544 787 -64 1498 -64 
C 2227 -64 2829 563 2829 1356 
z
M 1504 337 
C 1050 337 659 709 659 1408 
C 659 2151 1114 2427 1498 2427 
C 1914 2427 2342 2126 2342 1408 
C 2342 683 1926 337 1504 337 
z
" transform="scale(0.015625)"/>
       <path id="CMSS17-75" d="M 2618 2739 
L 2131 2739 
L 2131 972 
C 2131 498 1786 306 1421 306 
C 998 306 960 447 960 709 
L 960 2739 
L 474 2739 
L 474 678 
C 474 179 646 -64 1088 -64 
C 1306 -64 1798 -13 2144 306 
L 2144 0 
L 2618 0 
L 2618 2739 
z
" transform="scale(0.015625)"/>
       <path id="CMSS17-6e" d="M 2618 1877 
C 2618 2283 2522 2816 1798 2816 
C 1389 2816 1120 2606 941 2389 
L 941 2758 
L 474 2758 
L 474 0 
L 960 0 
L 960 1559 
C 960 1964 1114 2428 1549 2428 
C 2112 2428 2131 2048 2131 1829 
L 2131 0 
L 2618 0 
L 2618 1877 
z
" transform="scale(0.015625)"/>
       <path id="CMSS17-74" d="M 1069 2368 
L 1901 2368 
L 1901 2737 
L 1069 2737 
L 1069 3520 
L 614 3520 
L 614 2737 
L 109 2737 
L 109 2368 
L 602 2368 
L 602 749 
C 602 384 685 -64 1107 -64 
C 1427 -64 1722 25 2003 172 
L 1901 548 
C 1747 414 1562 337 1363 337 
C 1082 337 1069 696 1069 856 
L 1069 2368 
z
" transform="scale(0.015625)"/>
       <path id="CMSS17-73" d="M 2061 2627 
C 1683 2807 1389 2807 1197 2807 
C 742 2807 198 2648 198 2003 
C 198 1359 902 1218 1094 1179 
C 1389 1122 1715 1058 1715 740 
C 1715 337 1254 337 1171 337 
C 915 337 563 407 243 638 
L 166 210 
C 531 0 883 -64 1178 -64 
C 1965 -64 2163 416 2163 781 
C 2163 1094 1984 1305 1862 1401 
C 1651 1568 1574 1587 1050 1696 
C 960 1709 646 1779 646 2066 
C 646 2432 1050 2432 1139 2432 
C 1555 2432 1811 2303 1984 2208 
L 2061 2627 
z
" transform="scale(0.015625)"/>
      </defs>
      <use xlink:href="#CMSS17-43" transform="scale(0.996264)"/>
      <use xlink:href="#CMSS17-6f" transform="translate(59.855772 0) scale(0.996264)"/>
      <use xlink:href="#CMSS17-75" transform="translate(106.699395 0) scale(0.996264)"/>
      <use xlink:href="#CMSS17-6e" transform="translate(154.904338 0) scale(0.996264)"/>
      <use xlink:href="#CMSS17-74" transform="translate(203.109281 0) scale(0.996264)"/>
      <use xlink:href="#CMSS17-73" transform="translate(236.940848 0) scale(0.996264)"/>
     </g>
    </g>
   </g>
   <g id="patch_3">
    <path d="M 48.65038 15.490224 
L 49.90072 20.713915 
L 48.654754 19.146808 
L 48.654754 64.860441 
L 48.646006 64.860441 
L 48.646006 19.146808 
L 47.40004 20.713915 
z
" style="fill: #1a1a1a; stroke: #1a1a1a; stroke-linejoin: miter"/>
   </g>
   <g id="patch_4">
    <path d="M 154.485716 64.860441 
L 149.193949 66.094696 
L 150.781479 64.861601 
L 48.65038 64.861601 
L 48.65038 64.85928 
L 150.781479 64.85928 
L 149.193949 63.626185 
z
" style="fill: #1a1a1a; stroke: #1a1a1a; stroke-linejoin: miter"/>
   </g>
   <g id="line2d_1">
    <path d="M 53.461077 17.734354 
L 59.891087 17.836878 
L 60.38974 18.166038 
L 61.465783 18.981417 
L 61.780722 18.895783 
L 62.148151 18.518505 
L 62.856765 17.734686 
L 63.040479 17.830684 
L 63.250439 18.272612 
L 63.512888 19.485 
L 63.827827 22.131065 
L 64.247746 27.861825 
L 64.90387 40.626428 
L 65.664973 54.446779 
L 66.006157 57.513589 
L 66.216117 57.972164 
L 66.321096 57.767986 
L 66.504811 56.721959 
L 66.793505 53.431909 
L 67.239669 45.319948 
L 68.446936 22.170202 
L 68.84061 18.736595 
L 69.129305 17.799132 
L 69.286774 17.748224 
L 69.470489 17.999273 
L 69.811673 19.006361 
L 70.494042 21.011973 
L 70.782736 21.265956 
L 70.992695 21.173648 
L 71.28139 20.728636 
L 71.885023 19.222985 
L 72.436167 18.105388 
L 72.803596 17.77744 
L 73.14478 17.748808 
L 73.669679 17.974979 
L 74.352047 18.203708 
L 74.903191 18.133935 
L 76.635357 17.739953 
L 78.787442 17.784355 
L 81.333201 17.959677 
L 82.514223 17.772703 
L 82.855407 18.000978 
L 83.222836 18.54913 
L 83.669 19.669129 
L 84.981247 23.335437 
L 85.217452 23.407839 
L 85.427411 23.204137 
L 85.716106 22.51729 
L 86.162269 20.752661 
L 86.870883 18.016389 
L 87.107087 17.734847 
L 87.264557 17.847461 
L 87.448271 18.327553 
L 87.710721 19.709174 
L 88.07815 22.979336 
L 88.708028 31.065237 
L 89.469132 40.181166 
L 89.836561 42.381426 
L 90.04652 42.729036 
L 90.177745 42.599056 
L 90.36146 41.983505 
L 90.650154 40.093964 
L 91.122563 35.22948 
L 92.356075 21.935705 
L 92.828484 19.318566 
L 93.222158 18.255251 
L 93.589587 17.86296 
L 94.009506 17.751611 
L 94.823099 17.804379 
L 95.216773 18.045814 
L 95.557957 18.53388 
L 95.951631 19.514095 
L 96.52902 21.654948 
L 97.447593 25.002238 
L 97.788777 25.556162 
L 98.024981 25.607602 
L 98.261186 25.382972 
L 98.576125 24.69685 
L 99.074779 22.977819 
L 100.177066 19.102449 
L 100.649475 18.224944 
L 101.069394 17.864012 
L 101.568048 17.742826 
L 102.880295 17.771154 
L 103.405194 17.975716 
L 103.903847 18.429918 
L 104.664951 19.501888 
L 105.373564 20.369873 
L 105.793483 20.572665 
L 106.160912 20.506784 
L 106.580831 20.184205 
L 107.341934 19.238098 
L 108.181772 18.313991 
L 108.785406 17.964844 
L 109.467774 17.832401 
L 110.228877 17.90057 
L 110.701286 18.152887 
L 111.068715 18.60842 
L 111.436145 19.449794 
L 111.829819 20.966854 
L 112.275983 23.661002 
L 112.853371 28.733995 
L 114.165618 41.001095 
L 114.454312 41.893249 
L 114.585537 41.893935 
L 114.743007 41.532008 
L 114.979211 40.23103 
L 115.320395 36.838673 
L 115.924029 27.95671 
L 116.580152 19.347177 
L 116.868847 17.8074 
L 116.973826 17.745768 
L 117.000071 17.775166 
L 117.131296 18.198162 
L 117.341256 19.842733 
L 117.656195 24.438555 
L 118.154849 35.594176 
L 119.020932 54.754392 
L 119.335871 57.794866 
L 119.493341 58.117834 
L 119.519585 58.090879 
L 119.65081 57.611474 
L 119.86077 55.690565 
L 120.201954 49.950457 
L 120.936812 32.250988 
L 121.487956 21.581845 
L 121.82914 18.337077 
L 122.0391 17.739604 
L 122.144079 17.804665 
L 122.301549 18.295325 
L 122.590243 20.124295 
L 123.587551 27.203136 
L 123.823755 27.52843 
L 123.95498 27.403766 
L 124.164939 26.795517 
L 124.532369 24.832926 
L 125.555921 18.970811 
L 125.92335 18.082713 
L 126.264534 17.785398 
L 126.710698 17.734451 
L 127.524292 17.834197 
L 127.812986 18.12689 
L 128.127925 18.795157 
L 128.574089 20.36894 
L 129.335192 23.051389 
L 129.571397 23.259161 
L 129.728866 23.13383 
L 129.965071 22.545175 
L 130.3325 20.877522 
L 130.988623 17.927417 
L 131.198583 17.744556 
L 131.329808 17.940964 
L 131.539767 18.798915 
L 131.854706 21.291798 
L 132.537075 29.269213 
L 132.983239 32.970281 
L 133.193198 33.484911 
L 133.298178 33.390419 
L 133.455647 32.80677 
L 133.718097 30.75806 
L 134.216751 24.57492 
L 134.767894 18.682077 
L 135.030344 17.741405 
L 135.135323 17.811238 
L 135.292793 18.401937 
L 135.555242 20.582933 
L 136.001406 26.678301 
L 136.788755 37.256786 
L 137.156184 39.637993 
L 137.444878 40.343207 
L 137.707327 40.468567 
L 138.153491 40.578705 
L 138.442186 40.997203 
L 139.098309 42.078026 
L 139.229534 41.937585 
L 139.413248 41.319153 
L 139.675698 39.399033 
L 140.016882 34.994429 
L 141.197904 17.859313 
L 141.302884 17.741929 
L 141.329129 17.773587 
L 141.460354 18.303784 
L 141.670313 20.414069 
L 142.011497 26.614456 
L 142.93007 44.607413 
L 143.14003 45.457227 
L 143.218764 45.288613 
L 143.376234 44.157332 
L 143.638683 40.15113 
L 144.216072 26.489743 
L 144.662236 18.712946 
L 144.872195 17.734907 
L 144.95093 17.900539 
L 145.1084 19.101979 
L 145.370849 23.429601 
L 145.948238 38.2419 
L 146.368157 46.366838 
L 146.604361 47.716219 
L 146.683096 47.548103 
L 146.840566 46.290811 
L 147.103015 41.76343 
L 148.257792 17.765693 
L 148.310282 17.743254 
L 148.336527 17.787431 
L 148.441507 18.332437 
L 148.651466 21.115461 
L 148.992651 29.46813 
L 149.675019 48.411579 
L 149.675019 48.411579 
" clip-path="url(#p7d941af296)" style="fill: none; stroke: #4c72b0; stroke-width: 1.5; stroke-linecap: round"/>
   </g>
   <g id="line2d_2">
    <path d="M 53.461077 17.734372 
L 58.080186 17.841222 
L 59.025004 18.02408 
L 59.576147 17.781617 
L 59.891087 17.761871 
L 60.101046 17.982862 
L 60.337251 18.60733 
L 60.625945 20.073161 
L 61.019619 23.369706 
L 62.043172 32.641944 
L 62.253131 33.034295 
L 62.358111 32.917762 
L 62.541825 32.218486 
L 62.83052 30.009397 
L 64.142767 18.205017 
L 64.405216 17.751381 
L 64.588931 17.775754 
L 64.90387 18.148666 
L 65.376279 18.642728 
L 65.638728 18.636704 
L 65.979912 18.36806 
L 66.688526 17.77436 
L 67.0822 17.747753 
L 68.315712 17.848003 
L 69.575469 17.734715 
L 72.173718 17.856699 
L 73.19727 17.928076 
L 74.220823 17.801249 
L 74.562007 18.112261 
L 75.454335 19.105013 
L 75.690539 18.973348 
L 76.031723 18.424713 
L 76.504132 17.740931 
L 76.661602 17.790816 
L 76.845317 18.135297 
L 77.107766 19.189057 
L 78.078829 23.76071 
L 78.210053 23.587356 
L 78.420013 22.707652 
L 78.839932 19.574388 
L 79.181116 17.777768 
L 79.259851 17.744586 
L 79.286096 17.777422 
L 79.41732 18.310266 
L 79.601035 20.207406 
L 79.889729 26.078011 
L 80.362138 41.484682 
L 80.965772 59.668042 
L 81.228221 62.544558 
L 81.280711 62.61634 
L 81.333201 62.516485 
L 81.464426 61.529044 
L 81.70063 57.315567 
L 82.120549 44.544609 
L 82.855407 22.951872 
L 83.196591 18.58258 
L 83.432796 17.742243 
L 83.537776 17.791368 
L 83.72149 18.28163 
L 84.456349 20.66274 
L 84.640063 20.647114 
L 84.850023 20.307953 
L 85.401166 18.752909 
L 85.821085 17.942451 
L 86.136025 17.744769 
L 86.582188 17.780175 
L 87.264557 17.794855 
L 88.445579 17.749558 
L 89.862806 17.884187 
L 90.597664 18.356269 
L 91.489992 18.864256 
L 91.883666 18.846943 
L 92.22485 18.597946 
L 93.143423 17.756194 
L 93.327137 17.962049 
L 93.589587 18.685474 
L 93.983261 20.607676 
L 94.586895 23.439026 
L 94.770609 23.632378 
L 94.901834 23.477614 
L 95.111793 22.724243 
L 95.505467 20.162915 
L 95.925386 17.876881 
L 96.056611 17.73803 
L 96.082856 17.757183 
L 96.214081 18.108877 
L 96.42404 19.592152 
L 96.765224 24.111482 
L 97.500083 34.271569 
L 97.657552 34.772382 
L 97.683797 34.766905 
L 97.788777 34.485292 
L 97.972491 33.025857 
L 98.287431 28.267172 
L 98.943554 18.245521 
L 99.101024 17.735288 
L 99.127269 17.759097 
L 99.232249 18.176726 
L 99.415963 20.130953 
L 99.730902 26.522836 
L 100.57074 45.123313 
L 100.7807 46.126722 
L 100.859435 45.955743 
L 101.016904 44.760265 
L 101.279354 40.635609 
L 102.486621 18.645979 
L 102.722825 17.787006 
L 102.880295 17.77049 
L 103.090254 18.161192 
L 103.693888 19.431786 
L 103.903847 19.434361 
L 104.140052 19.164471 
L 105.111115 17.805635 
L 105.557279 17.734463 
L 106.475851 17.836648 
L 106.869525 18.156103 
L 107.630629 18.838415 
L 107.893078 18.773838 
L 108.234262 18.411401 
L 108.837896 17.749623 
L 109.0741 17.781598 
L 109.33655 18.094601 
L 109.730224 18.998528 
L 110.701286 21.337624 
L 111.042471 21.651795 
L 111.278675 21.608383 
L 111.514879 21.300472 
L 111.829819 20.451102 
L 112.722147 17.734848 
L 112.853371 17.875638 
L 113.037086 18.532954 
L 113.299535 20.439238 
L 113.876924 26.938808 
L 114.244353 29.749404 
L 114.375578 29.975155 
L 114.401823 29.961131 
L 114.506802 29.702697 
L 114.690517 28.493901 
L 115.031701 24.310928 
L 115.5566 18.150836 
L 115.714069 17.737605 
L 115.740314 17.765761 
L 115.845294 18.17266 
L 116.029009 20.020683 
L 116.343948 26.028257 
L 117.052561 40.210652 
L 117.210031 40.885694 
L 117.236276 40.864662 
L 117.341256 40.393809 
L 117.52497 38.150693 
L 117.866154 30.465428 
L 118.417298 18.638704 
L 118.574768 17.737645 
L 118.601013 17.743142 
L 118.679747 18.037454 
L 118.837217 19.873225 
L 119.099666 26.248642 
L 120.149464 55.815037 
L 120.228199 56.007623 
L 120.280689 55.908173 
L 120.411913 54.89351 
L 120.648118 50.659907 
L 121.173017 35.511471 
L 121.697915 23.000114 
L 122.0391 19.147651 
L 122.327794 17.967178 
L 122.563998 17.744562 
L 123.115142 17.743733 
L 123.561306 17.803234 
L 123.876245 18.108509 
L 124.506124 18.771384 
L 124.716083 18.678521 
L 125.031022 18.21758 
L 125.424696 17.736177 
L 125.582166 17.814907 
L 125.765881 18.206375 
L 126.054575 19.453948 
L 126.789433 22.874633 
L 126.946903 22.894162 
L 127.104373 22.538902 
L 127.366822 21.253799 
L 128.022945 17.822845 
L 128.15417 17.743148 
L 128.180415 17.764247 
L 128.31164 18.056657 
L 128.547844 19.303526 
L 129.177723 24.571684 
L 129.571397 26.713042 
L 129.886336 27.347574 
L 130.621194 28.237694 
L 130.988623 28.71675 
L 131.119848 28.614531 
L 131.303563 28.043374 
L 131.566012 26.217944 
L 132.51083 17.734862 
L 132.56332 17.772133 
L 132.694544 18.28685 
L 132.904504 20.316248 
L 133.350668 27.596898 
L 133.744342 32.39246 
L 133.875566 32.737313 
L 133.901811 32.714011 
L 134.006791 32.310597 
L 134.190506 30.484219 
L 134.58418 23.595451 
L 134.977854 18.135285 
L 135.109079 17.735875 
L 135.135323 17.765179 
L 135.240303 18.255374 
L 135.424018 20.486943 
L 135.791447 28.534309 
L 136.237611 37.104242 
L 136.395081 37.911516 
L 136.421325 37.896628 
L 136.526305 37.403655 
L 136.71002 34.973938 
L 137.103694 25.593609 
L 137.497368 18.198257 
L 137.602348 17.735765 
L 137.654838 17.8182 
L 137.759817 18.637699 
L 137.943532 22.139721 
L 138.284716 34.097126 
L 138.914595 55.940425 
L 139.124554 57.735115 
L 139.203289 57.437839 
L 139.360758 55.33614 
L 139.649453 47.320377 
L 140.515536 20.663605 
L 140.80423 17.999383 
L 140.9617 17.734752 
L 140.987945 17.744299 
L 141.145414 17.992567 
L 141.565333 18.698949 
L 141.722803 18.590811 
L 142.300192 17.758204 
L 142.352681 17.823535 
L 142.510151 18.296387 
L 142.7726 19.993548 
L 143.481214 25.177436 
L 143.586193 25.221127 
L 143.612438 25.186632 
L 143.743663 24.746204 
L 143.979868 22.991675 
L 144.635991 17.77636 
L 144.714726 17.745749 
L 144.740971 17.779068 
L 144.872195 18.273054 
L 145.1084 20.393665 
L 145.869503 28.288912 
L 145.948238 28.31214 
L 145.974483 28.269707 
L 146.105708 27.690652 
L 146.341912 25.335927 
L 147.02428 17.833964 
L 147.103015 17.735312 
L 147.155505 17.803824 
L 147.28673 18.438129 
L 147.522934 21.009508 
L 148.231547 29.671504 
L 148.310282 29.803221 
L 148.362772 29.752026 
L 148.493997 29.150664 
L 148.730201 26.641528 
L 149.41257 18.801316 
L 149.491304 18.725144 
L 149.517549 18.756007 
L 149.622529 19.157208 
L 149.675019 19.517814 
L 149.675019 19.517814 
" clip-path="url(#p7d941af296)" style="fill: none; stroke: #dd8452; stroke-width: 1.5; stroke-linecap: round"/>
   </g>
   <g id="line2d_3">
    <path d="M 53.461077 17.734402 
L 57.712757 17.846774 
L 59.103739 18.033522 
L 59.838597 17.847643 
L 60.048556 18.106752 
L 60.284761 18.78598 
L 60.5997 20.49596 
L 61.045864 24.42585 
L 61.938192 32.53715 
L 62.200641 33.255918 
L 62.305621 33.195789 
L 62.463091 32.719521 
L 62.72554 30.980523 
L 63.670358 23.516991 
L 63.749093 23.571306 
L 63.880317 24.062293 
L 64.090277 25.883642 
L 64.431461 31.118448 
L 65.874933 55.994236 
L 66.163627 57.443339 
L 66.242362 57.478705 
L 66.268607 57.454284 
L 66.399831 57.057322 
L 66.609791 55.481189 
L 66.92473 51.177762 
L 67.528364 39.094348 
L 68.315712 24.472015 
L 68.735631 20.125417 
L 69.05057 18.742688 
L 69.260529 18.576139 
L 69.417999 18.753512 
L 69.706693 19.515127 
L 70.546531 21.927168 
L 70.808981 22.112735 
L 71.01894 22.012703 
L 71.307635 21.580024 
L 72.672371 19.087123 
L 73.039801 19.012879 
L 73.617189 19.16391 
L 74.142088 19.489982 
L 74.588252 20.053918 
L 75.454335 21.229432 
L 75.716784 21.216931 
L 76.084213 20.913039 
L 76.425398 20.740126 
L 76.609112 20.887558 
L 76.845317 21.456714 
L 77.186501 23.048453 
L 78.000094 27.102453 
L 78.183808 27.177566 
L 78.341278 26.879642 
L 78.629972 25.650347 
L 79.128626 23.537833 
L 79.233606 23.512093 
L 79.259851 23.544274 
L 79.391075 23.968112 
L 79.601035 25.663178 
L 79.889729 30.126424 
L 80.440873 43.152078 
L 80.965772 53.354887 
L 81.201976 54.949161 
L 81.254466 54.98974 
L 81.306956 54.915873 
L 81.438181 54.245095 
L 81.674385 51.474143 
L 82.146794 42.354465 
L 82.697938 33.007381 
L 83.012877 30.770271 
L 83.170347 30.537724 
L 83.196591 30.547589 
L 83.327816 30.771495 
L 83.590266 31.846232 
L 84.587573 36.427548 
L 85.112472 37.601551 
L 86.10978 39.166942 
L 86.923373 40.155618 
L 87.422026 40.448069 
L 87.92068 40.469024 
L 89.101703 40.394204 
L 90.335215 40.527913 
L 91.857421 40.433561 
L 93.615832 40.485381 
L 123.272612 40.654344 
L 124.532369 40.857572 
L 126.159555 41.255038 
L 127.498047 41.184785 
L 128.127925 41.112168 
L 130.594949 40.384587 
L 131.723482 40.034573 
L 132.35336 39.858565 
L 132.825769 39.997418 
L 133.508137 40.16613 
L 133.901811 40.067478 
L 134.164261 39.738005 
L 134.452955 38.9381 
L 135.161568 36.788187 
L 135.292793 36.883972 
L 135.502753 37.476162 
L 136.316346 40.252178 
L 136.55255 40.302153 
L 137.077449 40.31541 
L 137.786062 40.481815 
L 138.73088 40.371875 
L 139.177044 40.265709 
L 139.911902 40.410325 
L 140.174352 39.88683 
L 140.75174 38.631521 
L 140.9617 38.62393 
L 141.197904 38.899761 
L 142.300192 40.512264 
L 142.615131 40.491129 
L 143.297499 40.356277 
L 143.743663 40.565376 
L 144.714726 41.145396 
L 145.082155 40.851726 
L 145.580809 40.519753 
L 146.105708 40.489811 
L 147.654159 40.718657 
L 148.940161 41.561043 
L 149.09763 41.354316 
L 149.333835 40.582683 
L 149.675019 39.044238 
L 149.675019 39.044238 
" clip-path="url(#p7d941af296)" style="fill: none; stroke: #000000; stroke-opacity: 0.8; stroke-width: 1.5; stroke-linecap: round"/>
   </g>
  </g>
 </g>
 <defs>
  <clipPath id="p7d941af296">
   <rect x="42.045756" y="12.96" width="117.794244" height="55.66492"/>
  </clipPath>
 </defs>
</svg>
