<?xml version="1.0" encoding="utf-8" standalone="no"?>
<!DOCTYPE svg PUBLIC "-//W3C//DTD SVG 1.1//EN"
  "http://www.w3.org/Graphics/SVG/1.1/DTD/svg11.dtd">
<svg xmlns:xlink="http://www.w3.org/1999/xlink" width="172.8pt" height="106.796273pt" viewBox="0 0 172.8 106.796273" xmlns="http://www.w3.org/2000/svg" version="1.1">
 <metadata>
  <rdf:RDF xmlns:dc="http://purl.org/dc/elements/1.1/" xmlns:cc="http://creativecommons.org/ns#" xmlns:rdf="http://www.w3.org/1999/02/22-rdf-syntax-ns#">
   <cc:Work>
    <dc:type rdf:resource="http://purl.org/dc/dcmitype/StillImage"/>
    <dc:date>2023-08-24T11:09:20.696297</dc:date>
    <dc:format>image/svg+xml</dc:format>
    <dc:creator>
     <cc:Agent>
      <dc:title>Matplotlib v3.7.1, https://matplotlib.org/</dc:title>
     </cc:Agent>
    </dc:creator>
   </cc:Work>
  </rdf:RDF>
 </metadata>
 <defs>
  <style type="text/css">*{stroke-linejoin: round; stroke-linecap: butt}</style>
 </defs>
 <g id="figure_1">
  <g id="patch_1">
   <path d="M 0 106.796273 
L 172.8 106.796273 
L 172.8 0 
L 0 0 
z
" style="fill: #ffffff"/>
  </g>
  <g id="axes_1">
   <g id="patch_2">
    <path d="M 39.278347 81.480597 
L 158.439033 81.480597 
L 158.439033 12.96 
L 39.278347 12.96 
z
" style="fill: #ffffff"/>
   </g>
   <g id="matplotlib.axis_1">
    <g id="xtick_1">
     <g id="line2d_1">
      <defs>
       <path id="mc337d57b57" d="M 0 0 
L 0 -6 
" style="stroke: #262626; stroke-width: 1.25"/>
      </defs>
      <g>
       <use xlink:href="#mc337d57b57" x="45.716868" y="81.480597" style="fill: #262626; stroke: #262626; stroke-width: 1.25"/>
      </g>
     </g>
     <g id="text_1">
      <!-- $\omega_L$ -->
      <g style="fill: #262626" transform="translate(39.883405 91.899095) scale(0.1 -0.1)">
       <defs>
        <path id="CMMI12-21" d="M 3802 2395 
C 3802 2580 3750 2816 3526 2816 
C 3398 2816 3251 2657 3251 2529 
C 3251 2472 3277 2434 3328 2376 
C 3424 2268 3546 2096 3546 1797 
C 3546 1567 3405 1204 3302 1007 
C 3123 656 2829 357 2496 357 
C 2093 357 1939 615 1869 975 
C 1939 1143 2086 1560 2086 1728 
C 2086 1798 2061 1856 1978 1856 
C 1933 1856 1882 1831 1850 1779 
C 1760 1638 1677 1129 1683 994 
C 1562 756 1216 357 806 357 
C 378 357 262 733 262 1096 
C 262 1758 678 2338 794 2497 
C 858 2593 902 2657 902 2669 
C 902 2714 877 2784 819 2784 
C 717 2784 685 2701 634 2625 
C 307 2121 77 1414 77 803 
C 77 408 224 -64 704 -64 
C 1235 -64 1568 391 1702 634 
C 1754 275 1946 -64 2413 -64 
C 2899 -64 3206 363 3437 879 
C 3603 1249 3802 2045 3802 2395 
z
" transform="scale(0.015625)"/>
        <path id="CMMI12-4c" d="M 2349 3861 
C 2406 4103 2426 4167 2989 4167 
C 3162 4167 3206 4167 3206 4288 
C 3206 4352 3136 4352 3110 4352 
C 2982 4352 2835 4352 2707 4352 
L 1850 4352 
C 1728 4352 1587 4352 1466 4352 
C 1414 4352 1344 4352 1344 4231 
C 1344 4167 1402 4167 1498 4167 
C 1888 4167 1888 4116 1888 4046 
C 1888 4034 1888 3995 1862 3899 
L 998 472 
C 941 249 928 185 480 185 
C 358 185 294 185 294 70 
C 294 0 333 0 461 0 
L 3328 0 
C 3469 0 3475 6 3520 121 
L 4013 1478 
C 4026 1510 4038 1548 4038 1567 
C 4038 1605 4006 1631 3974 1631 
C 3968 1631 3936 1631 3923 1605 
C 3910 1599 3910 1586 3859 1465 
C 3654 905 3366 185 2285 185 
L 1670 185 
C 1581 185 1568 185 1530 192 
C 1459 198 1453 211 1453 262 
C 1453 307 1466 345 1478 401 
L 2349 3861 
z
" transform="scale(0.015625)"/>
       </defs>
       <use xlink:href="#CMMI12-21" transform="scale(0.996264)"/>
       <use xlink:href="#CMMI12-4c" transform="translate(60.743753 -14.943915) scale(0.697382)"/>
      </g>
     </g>
    </g>
    <g id="xtick_2">
     <g id="line2d_2">
      <g>
       <use xlink:href="#mc337d57b57" x="117.117182" y="81.480597" style="fill: #262626; stroke: #262626; stroke-width: 1.25"/>
      </g>
     </g>
     <g id="text_2">
      <!-- $\omega_1^{(1)}$ -->
      <g style="fill: #262626" transform="translate(108.738864 95.386004) scale(0.1 -0.1)">
       <defs>
        <path id="CMR17-28" d="M 1958 -1561 
C 1958 -1555 1958 -1542 1939 -1523 
C 1645 -1224 858 -407 858 1581 
C 858 3569 1632 4379 1946 4697 
C 1946 4704 1958 4717 1958 4736 
C 1958 4755 1939 4768 1914 4768 
C 1843 4768 1299 4296 986 3594 
C 666 2887 576 2199 576 1588 
C 576 1128 621 351 1005 -471 
C 1312 -1135 1837 -1600 1914 -1600 
C 1946 -1600 1958 -1587 1958 -1561 
z
" transform="scale(0.015625)"/>
        <path id="CMR17-31" d="M 1702 4058 
C 1702 4192 1696 4192 1606 4192 
C 1357 3916 979 3827 621 3827 
C 602 3827 570 3827 563 3808 
C 557 3795 557 3782 557 3648 
C 755 3648 1088 3686 1344 3839 
L 1344 461 
C 1344 236 1331 160 781 160 
L 589 160 
L 589 0 
C 896 0 1216 0 1523 0 
C 1830 0 2150 0 2458 0 
L 2458 160 
L 2266 160 
C 1715 160 1702 230 1702 458 
L 1702 4058 
z
" transform="scale(0.015625)"/>
        <path id="CMR17-29" d="M 1683 1581 
C 1683 2040 1638 2817 1254 3639 
C 947 4303 422 4768 346 4768 
C 326 4768 301 4761 301 4729 
C 301 4717 307 4710 314 4697 
C 621 4378 1402 3568 1402 1584 
C 1402 -407 627 -1217 314 -1537 
C 307 -1549 301 -1556 301 -1568 
C 301 -1600 326 -1600 346 -1600 
C 416 -1600 960 -1128 1274 -426 
C 1594 281 1683 969 1683 1581 
z
" transform="scale(0.015625)"/>
       </defs>
       <use xlink:href="#CMMI12-21" transform="scale(0.996264)"/>
       <use xlink:href="#CMR17-28" transform="translate(64.318346 51.691943) scale(0.697382)"/>
       <use xlink:href="#CMR17-31" transform="translate(89.014766 51.691943) scale(0.697382)"/>
       <use xlink:href="#CMR17-29" transform="translate(120.997948 51.691943) scale(0.697382)"/>
       <use xlink:href="#CMR17-31" transform="translate(60.743753 -26.578082) scale(0.697382)"/>
      </g>
     </g>
    </g>
    <g id="xtick_3">
     <g id="line2d_3">
      <g>
       <use xlink:href="#mc337d57b57" x="146.715159" y="81.480597" style="fill: #262626; stroke: #262626; stroke-width: 1.25"/>
      </g>
     </g>
     <g id="text_3">
      <!-- $\omega_1^{(2)}$ -->
      <g style="fill: #262626" transform="translate(138.336841 95.386004) scale(0.1 -0.1)">
       <defs>
        <path id="CMR17-32" d="M 2669 989 
L 2554 989 
C 2490 536 2438 459 2413 420 
C 2381 369 1920 369 1830 369 
L 602 369 
C 832 619 1280 1072 1824 1597 
C 2214 1967 2669 2402 2669 3035 
C 2669 3790 2067 4224 1395 4224 
C 691 4224 262 3604 262 3030 
C 262 2780 448 2748 525 2748 
C 589 2748 781 2787 781 3010 
C 781 3207 614 3264 525 3264 
C 486 3264 448 3258 422 3245 
C 544 3790 915 4058 1306 4058 
C 1862 4058 2227 3617 2227 3035 
C 2227 2479 1901 2000 1536 1584 
L 262 146 
L 262 0 
L 2515 0 
L 2669 989 
z
" transform="scale(0.015625)"/>
       </defs>
       <use xlink:href="#CMMI12-21" transform="scale(0.996264)"/>
       <use xlink:href="#CMR17-28" transform="translate(64.318346 51.691943) scale(0.697382)"/>
       <use xlink:href="#CMR17-32" transform="translate(89.014766 51.691943) scale(0.697382)"/>
       <use xlink:href="#CMR17-29" transform="translate(120.997948 51.691943) scale(0.697382)"/>
       <use xlink:href="#CMR17-31" transform="translate(60.743753 -26.578082) scale(0.697382)"/>
      </g>
     </g>
    </g>
   </g>
   <g id="matplotlib.axis_2">
    <g id="text_4">
     <!-- Amplitude -->
     <g style="fill: #262626" transform="translate(33.341169 68.612322) rotate(-90) scale(0.1 -0.1)">
      <defs>
       <path id="CMSS17-41" d="M 2272 4416 
L 1722 4416 
L 166 0 
L 653 0 
L 1101 1280 
L 2816 1280 
L 3270 0 
L 3827 0 
L 2272 4416 
z
M 2694 1637 
L 1222 1637 
C 1530 2528 1914 3638 1958 3925 
L 1965 3925 
C 2010 3663 2138 3281 2246 2956 
L 2694 1637 
z
" transform="scale(0.015625)"/>
       <path id="CMSS17-6d" d="M 4288 1877 
C 4288 2308 4179 2816 3462 2816 
C 2982 2816 2694 2516 2566 2331 
C 2451 2670 2182 2816 1798 2816 
C 1363 2816 1088 2568 941 2389 
L 941 2758 
L 474 2758 
L 474 0 
L 960 0 
L 960 1559 
C 960 1939 1101 2428 1555 2428 
C 2138 2428 2138 2016 2138 1829 
L 2138 0 
L 2624 0 
L 2624 1559 
C 2624 1939 2765 2428 3219 2428 
C 3802 2428 3802 2016 3802 1829 
L 3802 0 
L 4288 0 
L 4288 1877 
z
" transform="scale(0.015625)"/>
       <path id="CMSS17-70" d="M 966 333 
C 1178 129 1466 -5 1773 -5 
C 2368 -5 2880 603 2880 1412 
C 2880 2159 2496 2816 1946 2816 
C 1626 2816 1242 2702 954 2472 
L 954 2765 
L 480 2765 
L 480 -1216 
L 966 -1216 
L 966 333 
z
M 966 2100 
C 1018 2176 1235 2415 1587 2415 
C 2035 2415 2394 1960 2394 1412 
C 2394 787 1958 384 1530 384 
C 1402 384 1267 415 1139 523 
C 966 674 966 768 966 857 
L 966 2100 
z
" transform="scale(0.015625)"/>
       <path id="CMSS17-6c" d="M 947 4416 
L 474 4416 
L 474 0 
L 947 0 
L 947 4416 
z
" transform="scale(0.015625)"/>
       <path id="CMSS17-69" d="M 979 4183 
L 442 4183 
L 442 3648 
L 979 3648 
L 979 4183 
z
M 947 2739 
L 474 2739 
L 474 0 
L 947 0 
L 947 2739 
z
" transform="scale(0.015625)"/>
       <path id="CMSS17-74" d="M 1069 2368 
L 1901 2368 
L 1901 2737 
L 1069 2737 
L 1069 3520 
L 614 3520 
L 614 2737 
L 109 2737 
L 109 2368 
L 602 2368 
L 602 749 
C 602 384 685 -64 1107 -64 
C 1427 -64 1722 25 2003 172 
L 1901 548 
C 1747 414 1562 337 1363 337 
C 1082 337 1069 696 1069 856 
L 1069 2368 
z
" transform="scale(0.015625)"/>
       <path id="CMSS17-75" d="M 2618 2739 
L 2131 2739 
L 2131 972 
C 2131 498 1786 306 1421 306 
C 998 306 960 447 960 709 
L 960 2739 
L 474 2739 
L 474 678 
C 474 179 646 -64 1088 -64 
C 1306 -64 1798 -13 2144 306 
L 2144 0 
L 2618 0 
L 2618 2739 
z
" transform="scale(0.015625)"/>
       <path id="CMSS17-64" d="M 2611 4416 
L 2138 4416 
L 2138 2438 
C 1939 2603 1613 2756 1254 2756 
C 672 2756 211 2131 211 1347 
C 211 562 666 -64 1235 -64 
C 1677 -64 1971 172 2125 306 
L 2125 -13 
L 2611 -13 
L 2611 4416 
z
M 2125 836 
C 2125 747 2125 653 1926 482 
C 1798 375 1645 325 1498 325 
C 1152 325 698 576 698 1340 
C 698 2134 1210 2368 1562 2368 
C 1798 2368 1990 2254 2125 2065 
L 2125 836 
z
" transform="scale(0.015625)"/>
       <path id="CMSS17-65" d="M 2502 1377 
C 2502 1590 2490 2003 2285 2345 
C 2061 2713 1696 2816 1421 2816 
C 755 2816 192 2188 192 1375 
C 192 582 774 -64 1510 -64 
C 1798 -64 2150 19 2470 248 
C 2470 274 2458 414 2451 420 
C 2451 433 2432 630 2432 656 
C 2125 407 1773 325 1517 325 
C 1107 325 666 667 646 1377 
L 2502 1377 
z
M 698 1728 
C 781 2084 1062 2421 1421 2421 
C 1517 2421 1965 2421 2080 1728 
L 698 1728 
z
" transform="scale(0.015625)"/>
      </defs>
      <use xlink:href="#CMSS17-41" transform="scale(0.996264)"/>
      <use xlink:href="#CMSS17-6d" transform="translate(62.217855 0) scale(0.996264)"/>
      <use xlink:href="#CMSS17-70" transform="translate(136.447109 0) scale(0.996264)"/>
      <use xlink:href="#CMSS17-6c" transform="translate(184.652052 0) scale(0.996264)"/>
      <use xlink:href="#CMSS17-69" transform="translate(206.832776 0) scale(0.996264)"/>
      <use xlink:href="#CMSS17-74" transform="translate(229.013499 0) scale(0.996264)"/>
      <use xlink:href="#CMSS17-75" transform="translate(262.845065 0) scale(0.996264)"/>
      <use xlink:href="#CMSS17-64" transform="translate(311.050008 0) scale(0.996264)"/>
      <use xlink:href="#CMSS17-65" transform="translate(359.254952 0) scale(0.996264)"/>
     </g>
    </g>
   </g>
   <g id="patch_3">
    <path d="M 39.278347 16.074573 
L 40.991362 21.35886 
L 39.278366 19.773574 
L 39.278366 76.84672 
L 39.278328 76.84672 
L 39.278328 19.773574 
L 37.565332 21.35886 
z
" style="fill: #1a1a1a; stroke: #1a1a1a; stroke-linejoin: miter"/>
   </g>
   <g id="patch_4">
    <path d="M 158.439033 76.84672 
L 152.480999 78.366024 
L 154.268409 76.846902 
L 39.278347 76.846902 
L 39.278347 76.846539 
L 154.268409 76.846539 
L 152.480999 75.327417 
z
" style="fill: #1a1a1a; stroke: #1a1a1a; stroke-linejoin: miter"/>
   </g>
   <g id="line2d_4">
    <path d="M 39.259128 74.077454 
L 45.486235 73.977059 
L 45.601551 73.767524 
L 45.63999 73.123823 
L 45.65921 38.613942 
L 45.736088 73.856351 
L 45.909063 74.016264 
L 46.524086 74.067069 
L 51.982414 74.083578 
L 116.09855 73.958489 
L 116.809671 73.772285 
L 117.040304 73.486726 
L 117.155621 72.984111 
L 117.232499 71.582699 
L 117.270938 67.201569 
L 117.290157 18.836943 
L 117.367035 72.045399 
L 117.54001 73.472158 
L 117.789863 73.779614 
L 118.251131 73.925991 
L 119.500396 74.015229 
L 124.670432 74.063144 
L 158.458252 74.079434 
L 158.458252 74.079434 
" clip-path="url(#p9b6650cc7e)" style="fill: none; stroke: #4c72b0; stroke-width: 1.5; stroke-linecap: round"/>
   </g>
   <g id="line2d_5">
    <path d="M 39.259128 74.08373 
L 45.543893 73.989106 
L 45.620771 73.794689 
L 45.63999 73.496509 
L 45.65921 52.270738 
L 45.736088 73.94139 
L 45.928282 74.042872 
L 46.946914 74.075215 
L 65.090089 74.083393 
L 145.542771 73.974614 
L 146.426867 73.793192 
L 146.67672 73.546333 
L 146.811256 73.099476 
L 146.907354 71.676032 
L 146.945792 68.392739 
L 146.965012 56.241172 
L 147.04189 71.713745 
L 147.214865 73.41446 
L 147.464718 73.754239 
L 147.906766 73.909451 
L 149.040714 74.003955 
L 153.441972 74.056707 
L 158.458252 74.06734 
L 158.458252 74.06734 
" clip-path="url(#p9b6650cc7e)" style="fill: none; stroke: #dd8452; stroke-width: 1.5; stroke-linecap: round"/>
   </g>
   <g id="line2d_6">
    <path d="M 39.259128 74.082767 
L 43.160679 74.021092 
L 43.179899 73.936281 
L 43.218338 74.059291 
L 43.275996 74.013966 
L 43.314435 73.892363 
L 43.333654 73.188933 
L 43.410532 74.017665 
L 43.660385 74.07242 
L 45.140284 74.041932 
L 45.197943 73.957095 
L 45.236381 73.504166 
L 45.29404 74.00216 
L 45.409357 74.063374 
L 45.428576 73.830095 
L 45.524673 73.953914 
L 45.601551 73.788997 
L 45.63999 73.174928 
L 45.65921 40.079097 
L 45.736088 73.843853 
L 45.928282 74.010443 
L 46.331891 73.968827 
L 46.408769 73.755688 
L 46.447208 71.464114 
L 46.504866 73.926707 
L 46.639402 74.073902 
L 46.658622 73.9773 
L 46.754719 74.058856 
L 47.023792 74.069256 
L 48.465252 74.025898 
L 48.484471 73.973873 
L 48.52291 74.064611 
L 48.561349 74.072121 
L 49.96437 74.081734 
L 52.751192 73.989195 
L 52.808851 73.720558 
L 52.82807 68.40625 
L 52.904948 73.984793 
L 53.116362 74.054624 
L 53.404654 73.982997 
L 53.443093 73.83847 
L 53.462313 73.296698 
L 53.539191 73.97455 
L 53.731385 74.051015 
L 55.057528 74.072647 
L 55.076748 73.970922 
L 55.153626 74.068299 
L 56.729622 74.07761 
L 114.445676 74.035629 
L 116.559818 73.886466 
L 116.944207 73.66459 
L 117.097963 73.330759 
L 117.19406 72.594611 
L 117.251718 70.503502 
L 117.270938 67.365691 
L 117.290157 20.134038 
L 117.367035 72.09026 
L 117.54001 73.483568 
L 117.789863 73.783781 
L 118.251131 73.92665 
L 119.519615 74.014145 
L 124.824188 74.059502 
L 145.177602 73.995466 
L 146.426867 73.799563 
L 146.67672 73.562948 
L 146.811256 73.134586 
L 146.907354 71.770007 
L 146.945792 68.622463 
L 146.965012 56.97329 
L 147.04189 71.817331 
L 147.214865 73.447689 
L 147.464718 73.773401 
L 147.906766 73.922134 
L 149.079153 74.013935 
L 153.768703 74.063775 
L 158.458252 74.072472 
L 158.458252 74.072472 
" clip-path="url(#p9b6650cc7e)" style="fill: none; stroke: #000000; stroke-opacity: 0.45; stroke-width: 3; stroke-linecap: round"/>
   </g>
   <g id="legend_1">
    <g id="patch_5">
     <path d="M 109.746661 54.053629 
L 152.839033 54.053629 
Q 154.439033 54.053629 154.439033 52.453629 
L 154.439033 18.56 
Q 154.439033 16.96 152.839033 16.96 
L 109.746661 16.96 
Q 108.146661 16.96 108.146661 18.56 
L 108.146661 52.453629 
Q 108.146661 54.053629 109.746661 54.053629 
z
" style="fill: #ffffff; opacity: 0.8; stroke: #cccccc; stroke-linejoin: miter"/>
    </g>
    <g id="line2d_7">
     <path d="M 111.346661 23.582196 
L 119.346661 23.582196 
L 127.346661 23.582196 
" style="fill: none; stroke: #4c72b0; stroke-width: 1.5; stroke-linecap: round"/>
    </g>
    <g id="text_5">
     <!-- $^{13}C_1$ -->
     <g style="fill: #262626" transform="translate(133.746661 26.382196) scale(0.08 -0.08)">
      <defs>
       <path id="CMR17-33" d="M 1414 2157 
C 1984 2157 2234 1662 2234 1090 
C 2234 320 1824 25 1453 25 
C 1114 25 563 194 390 693 
C 422 680 454 680 486 680 
C 640 680 755 782 755 948 
C 755 1133 614 1216 486 1216 
C 378 1216 211 1165 211 926 
C 211 335 787 -128 1466 -128 
C 2176 -128 2720 430 2720 1085 
C 2720 1707 2208 2157 1600 2227 
C 2086 2328 2554 2756 2554 3329 
C 2554 3820 2048 4179 1472 4179 
C 890 4179 378 3829 378 3329 
C 378 3110 544 3072 627 3072 
C 762 3072 877 3155 877 3321 
C 877 3486 762 3569 627 3569 
C 602 3569 570 3569 544 3557 
C 730 3959 1235 4032 1459 4032 
C 1683 4032 2106 3925 2106 3320 
C 2106 3143 2080 2828 1862 2550 
C 1670 2304 1453 2304 1242 2284 
C 1210 2284 1062 2269 1037 2269 
C 992 2263 966 2257 966 2208 
C 966 2163 973 2157 1101 2157 
L 1414 2157 
z
" transform="scale(0.015625)"/>
       <path id="CMMI12-43" d="M 4781 4423 
C 4781 4480 4736 4480 4723 4480 
C 4710 4480 4685 4480 4634 4416 
L 4192 3882 
C 3968 4264 3616 4480 3136 4480 
C 1754 4480 320 3088 320 1595 
C 320 533 1069 -128 2003 -128 
C 2515 -128 2963 88 3334 400 
C 3891 863 4058 1481 4058 1531 
C 4058 1588 4006 1588 3987 1588 
C 3930 1588 3923 1550 3910 1524 
C 3616 534 2752 57 2112 57 
C 1434 57 845 489 845 1391 
C 845 1595 909 2700 1632 3532 
C 1984 3939 2586 4295 3194 4295 
C 3898 4295 4211 3717 4211 3068 
C 4211 2903 4192 2764 4192 2738 
C 4192 2681 4256 2681 4275 2681 
C 4346 2681 4352 2687 4378 2801 
L 4781 4423 
z
" transform="scale(0.015625)"/>
      </defs>
      <use xlink:href="#CMR17-31" transform="translate(0 36.153639) scale(0.697382)"/>
      <use xlink:href="#CMR17-33" transform="translate(31.983182 36.153639) scale(0.697382)"/>
      <use xlink:href="#CMMI12-43" transform="translate(64.464496 0) scale(0.996264)"/>
      <use xlink:href="#CMR17-31" transform="translate(134.256533 -14.943915) scale(0.697382)"/>
     </g>
    </g>
    <g id="line2d_8">
     <path d="M 111.346661 35.354138 
L 119.346661 35.354138 
L 127.346661 35.354138 
" style="fill: none; stroke: #dd8452; stroke-width: 1.5; stroke-linecap: round"/>
    </g>
    <g id="text_6">
     <!-- $^{13}C_2$ -->
     <g style="fill: #262626" transform="translate(133.746661 38.154138) scale(0.08 -0.08)">
      <use xlink:href="#CMR17-31" transform="translate(0 36.153639) scale(0.697382)"/>
      <use xlink:href="#CMR17-33" transform="translate(31.983182 36.153639) scale(0.697382)"/>
      <use xlink:href="#CMMI12-43" transform="translate(64.464496 0) scale(0.996264)"/>
      <use xlink:href="#CMR17-32" transform="translate(134.256533 -14.943915) scale(0.697382)"/>
     </g>
    </g>
    <g id="line2d_9">
     <path d="M 111.346661 46.503883 
L 119.346661 46.503883 
L 127.346661 46.503883 
" style="fill: none; stroke: #000000; stroke-opacity: 0.45; stroke-width: 3; stroke-linecap: round"/>
    </g>
    <g id="text_7">
     <!-- All -->
     <g style="fill: #262626" transform="translate(133.746661 49.303883) scale(0.08 -0.08)">
      <use xlink:href="#CMSS17-41" transform="scale(0.996264)"/>
      <use xlink:href="#CMSS17-6c" transform="translate(62.217855 0) scale(0.996264)"/>
      <use xlink:href="#CMSS17-6c" transform="translate(84.398578 0) scale(0.996264)"/>
     </g>
    </g>
   </g>
  </g>
 </g>
 <defs>
  <clipPath id="p9b6650cc7e">
   <rect x="39.278347" y="12.96" width="119.160686" height="68.520597"/>
  </clipPath>
 </defs>
</svg>
