<?xml version="1.0" encoding="utf-8" standalone="no"?>
<!DOCTYPE svg PUBLIC "-//W3C//DTD SVG 1.1//EN"
  "http://www.w3.org/Graphics/SVG/1.1/DTD/svg11.dtd">
<svg xmlns:xlink="http://www.w3.org/1999/xlink" width="172.8pt" height="106.796273pt" viewBox="0 0 172.8 106.796273" xmlns="http://www.w3.org/2000/svg" version="1.1">
 <metadata>
  <rdf:RDF xmlns:dc="http://purl.org/dc/elements/1.1/" xmlns:cc="http://creativecommons.org/ns#" xmlns:rdf="http://www.w3.org/1999/02/22-rdf-syntax-ns#">
   <cc:Work>
    <dc:type rdf:resource="http://purl.org/dc/dcmitype/StillImage"/>
    <dc:date>2023-08-24T10:57:30.278717</dc:date>
    <dc:format>image/svg+xml</dc:format>
    <dc:creator>
     <cc:Agent>
      <dc:title>Matplotlib v3.7.1, https://matplotlib.org/</dc:title>
     </cc:Agent>
    </dc:creator>
   </cc:Work>
  </rdf:RDF>
 </metadata>
 <defs>
  <style type="text/css">*{stroke-linejoin: round; stroke-linecap: butt}</style>
 </defs>
 <g id="figure_1">
  <g id="patch_1">
   <path d="M 0 106.796273 
L 172.8 106.796273 
L 172.8 0 
L 0 0 
z
" style="fill: #ffffff"/>
  </g>
  <g id="axes_1">
   <g id="patch_2">
    <path d="M 47.027091 68.62492 
L 159.84 68.62492 
L 159.84 12.96 
L 47.027091 12.96 
z
" style="fill: #ffffff"/>
   </g>
   <g id="matplotlib.axis_1">
    <g id="text_1">
     <!-- $\tau$ -->
     <g style="fill: #262626" transform="translate(101.255943 79.543418) scale(0.1 -0.1)">
      <defs>
       <path id="CMMI12-1c" d="M 1837 2408 
L 2899 2408 
C 2982 2408 3194 2408 3194 2612 
C 3194 2752 3072 2752 2957 2752 
L 1197 2752 
C 1050 2752 832 2752 538 2440 
C 371 2255 166 1917 166 1879 
C 166 1841 198 1828 237 1828 
C 282 1828 288 1847 320 1885 
C 653 2408 986 2408 1146 2408 
L 1677 2408 
L 1011 223 
C 979 127 979 114 979 95 
C 979 25 1024 -64 1152 -64 
C 1350 -64 1382 108 1402 203 
L 1837 2408 
z
" transform="scale(0.015625)"/>
      </defs>
      <use xlink:href="#CMMI12-1c" transform="scale(0.996264)"/>
     </g>
    </g>
   </g>
   <g id="matplotlib.axis_2">
    <g id="text_2">
     <!-- Counts -->
     <g style="fill: #262626" transform="translate(41.089913 55.321328) rotate(-90) scale(0.1 -0.1)">
      <defs>
       <path id="CMSS17-43" d="M 3501 714 
C 3072 427 2874 344 2355 344 
C 1459 344 934 1303 934 2179 
C 934 3112 1472 4032 2381 4032 
C 2790 4032 3059 3918 3386 3715 
L 3475 4217 
C 3168 4370 2778 4440 2387 4440 
C 1158 4440 397 3316 397 2179 
C 397 927 1299 -64 2323 -64 
C 2874 -64 3066 -19 3539 280 
L 3501 714 
z
" transform="scale(0.015625)"/>
       <path id="CMSS17-6f" d="M 2829 1356 
C 2829 2176 2221 2816 1504 2816 
C 768 2816 173 2157 173 1356 
C 173 544 787 -64 1498 -64 
C 2227 -64 2829 563 2829 1356 
z
M 1504 337 
C 1050 337 659 709 659 1408 
C 659 2151 1114 2427 1498 2427 
C 1914 2427 2342 2126 2342 1408 
C 2342 683 1926 337 1504 337 
z
" transform="scale(0.015625)"/>
       <path id="CMSS17-75" d="M 2618 2739 
L 2131 2739 
L 2131 972 
C 2131 498 1786 306 1421 306 
C 998 306 960 447 960 709 
L 960 2739 
L 474 2739 
L 474 678 
C 474 179 646 -64 1088 -64 
C 1306 -64 1798 -13 2144 306 
L 2144 0 
L 2618 0 
L 2618 2739 
z
" transform="scale(0.015625)"/>
       <path id="CMSS17-6e" d="M 2618 1877 
C 2618 2283 2522 2816 1798 2816 
C 1389 2816 1120 2606 941 2389 
L 941 2758 
L 474 2758 
L 474 0 
L 960 0 
L 960 1559 
C 960 1964 1114 2428 1549 2428 
C 2112 2428 2131 2048 2131 1829 
L 2131 0 
L 2618 0 
L 2618 1877 
z
" transform="scale(0.015625)"/>
       <path id="CMSS17-74" d="M 1069 2368 
L 1901 2368 
L 1901 2737 
L 1069 2737 
L 1069 3520 
L 614 3520 
L 614 2737 
L 109 2737 
L 109 2368 
L 602 2368 
L 602 749 
C 602 384 685 -64 1107 -64 
C 1427 -64 1722 25 2003 172 
L 1901 548 
C 1747 414 1562 337 1363 337 
C 1082 337 1069 696 1069 856 
L 1069 2368 
z
" transform="scale(0.015625)"/>
       <path id="CMSS17-73" d="M 2061 2627 
C 1683 2807 1389 2807 1197 2807 
C 742 2807 198 2648 198 2003 
C 198 1359 902 1218 1094 1179 
C 1389 1122 1715 1058 1715 740 
C 1715 337 1254 337 1171 337 
C 915 337 563 407 243 638 
L 166 210 
C 531 0 883 -64 1178 -64 
C 1965 -64 2163 416 2163 781 
C 2163 1094 1984 1305 1862 1401 
C 1651 1568 1574 1587 1050 1696 
C 960 1709 646 1779 646 2066 
C 646 2432 1050 2432 1139 2432 
C 1555 2432 1811 2303 1984 2208 
L 2061 2627 
z
" transform="scale(0.015625)"/>
      </defs>
      <use xlink:href="#CMSS17-43" transform="scale(0.996264)"/>
      <use xlink:href="#CMSS17-6f" transform="translate(59.855772 0) scale(0.996264)"/>
      <use xlink:href="#CMSS17-75" transform="translate(106.699395 0) scale(0.996264)"/>
      <use xlink:href="#CMSS17-6e" transform="translate(154.904338 0) scale(0.996264)"/>
      <use xlink:href="#CMSS17-74" transform="translate(203.109281 0) scale(0.996264)"/>
      <use xlink:href="#CMSS17-73" transform="translate(236.940848 0) scale(0.996264)"/>
     </g>
    </g>
   </g>
   <g id="patch_3">
    <path d="M 53.404646 15.490224 
L 54.654342 20.493013 
L 53.41386 18.992176 
L 53.41386 64.860441 
L 53.395433 64.860441 
L 53.395433 18.992176 
L 52.15495 20.493013 
z
" style="fill: #1a1a1a; stroke: #1a1a1a; stroke-linejoin: miter"/>
   </g>
   <g id="patch_4">
    <path d="M 154.71214 64.860441 
L 149.646766 66.094696 
L 151.166378 64.861817 
L 53.404646 64.861817 
L 53.404646 64.859065 
L 151.166378 64.859065 
L 149.646766 63.626185 
z
" style="fill: #1a1a1a; stroke: #1a1a1a; stroke-linejoin: miter"/>
   </g>
   <g id="line2d_1">
    <path d="M 58.009533 20.898821 
L 58.230655 21.028886 
L 58.396498 20.839844 
L 58.672901 20.079183 
L 59.391551 17.839222 
L 59.612674 17.750042 
L 59.833797 18.048153 
L 60.220762 19.180329 
L 60.663008 20.355235 
L 60.884131 20.511938 
L 61.049974 20.386195 
L 61.326377 19.779569 
L 62.100308 17.804576 
L 62.26615 17.785345 
L 62.487273 18.073002 
L 62.874238 19.168435 
L 63.371765 20.416112 
L 63.592888 20.496063 
L 63.814011 20.210658 
L 64.200976 19.09758 
L 64.698503 17.82284 
L 64.919626 17.756635 
L 65.140749 18.085327 
L 65.472433 19.140217 
L 66.025241 20.876463 
L 66.246364 21.026023 
L 66.412206 20.85059 
L 66.68861 20.084877 
L 67.407259 17.78432 
L 67.573101 17.760804 
L 67.738944 18.0411 
L 68.015347 19.123051 
L 68.844559 23.000949 
L 69.010401 23.042575 
L 69.176243 22.697087 
L 69.452647 21.379091 
L 70.116016 17.807103 
L 70.226577 17.743642 
L 70.337139 17.965038 
L 70.502981 18.900727 
L 70.779385 22.177752 
L 71.16635 29.938321 
L 72.106123 49.983931 
L 72.382526 51.874869 
L 72.493088 51.861243 
L 72.65893 51.032589 
L 72.935334 47.736869 
L 73.43286 37.975686 
L 74.206791 23.420651 
L 74.593756 19.553122 
L 74.925441 18.07987 
L 75.201844 17.740457 
L 75.422967 17.790896 
L 76.307459 18.250931 
L 76.749705 18.099268 
L 77.634197 17.754178 
L 78.463408 17.755495 
L 80.398234 17.734607 
L 89.132592 17.81252 
L 90.514611 18.182664 
L 91.399103 17.796171 
L 91.620226 18.195545 
L 91.841349 19.128587 
L 92.117752 21.300001 
L 92.504718 26.526053 
L 93.112806 38.728318 
L 93.720894 49.543146 
L 93.997298 51.514774 
L 94.107859 51.575022 
L 94.218421 51.196688 
L 94.439544 49.151235 
L 94.771228 43.313852 
L 95.987405 18.990231 
L 96.263808 17.753626 
L 96.37437 17.786117 
L 96.540212 18.277868 
L 96.927177 20.565424 
L 97.369423 22.763615 
L 97.590546 23.00264 
L 97.756388 22.741281 
L 98.032792 21.623539 
L 98.806723 17.936964 
L 99.027846 17.738844 
L 99.193688 17.929704 
L 99.470092 18.740819 
L 100.133461 20.881693 
L 100.354584 20.974863 
L 100.520426 20.763735 
L 100.85211 19.78875 
L 101.460198 17.892266 
L 101.681321 17.73662 
L 101.847164 17.876756 
L 102.123567 18.512388 
L 102.842217 20.408971 
L 103.06334 20.448189 
L 103.284463 20.13589 
L 103.726709 18.873641 
L 104.168955 17.890205 
L 104.390078 17.853794 
L 104.611201 18.163512 
L 105.053447 19.421454 
L 105.495693 20.409017 
L 105.716816 20.443516 
L 105.937939 20.123754 
L 106.324904 18.998721 
L 106.76715 17.861729 
L 106.988273 17.74146 
L 107.154115 17.9086 
L 107.430519 18.616636 
L 108.204449 20.929824 
L 108.370292 20.966565 
L 108.536134 20.760584 
L 108.812538 19.966734 
L 109.475907 17.821357 
L 109.641749 17.741656 
L 109.807591 17.958685 
L 110.083995 18.942537 
L 110.968487 22.932947 
L 111.134329 22.919398 
L 111.300171 22.526994 
L 111.576575 21.168602 
L 112.184663 17.868355 
L 112.295225 17.734401 
L 112.350505 17.765676 
L 112.516348 18.30773 
L 112.73747 20.182143 
L 113.069155 25.453412 
L 114.395893 50.890829 
L 114.561735 51.210612 
L 114.672297 50.885871 
L 114.89342 49.032908 
L 115.225104 43.835 
L 116.496561 21.140089 
L 116.883526 18.530728 
L 117.15993 17.843507 
L 117.381053 17.73539 
L 117.712738 17.914259 
L 118.265545 18.213269 
L 118.65251 18.160054 
L 120.034529 17.734368 
L 131.422362 17.867629 
L 132.472697 18.194512 
L 132.859662 18.008684 
L 133.357189 17.734545 
L 133.578312 17.882656 
L 133.799434 18.425672 
L 134.075838 19.930086 
L 134.407523 23.301254 
L 134.849769 30.561956 
L 135.900103 49.450187 
L 136.121226 50.690713 
L 136.231787 50.692143 
L 136.39763 49.893238 
L 136.618753 47.393861 
L 137.005718 39.906664 
L 137.94549 20.47406 
L 138.277175 17.947158 
L 138.443017 17.743835 
L 138.608859 18.110349 
L 138.940544 19.892605 
L 139.438071 22.532084 
L 139.659194 22.88246 
L 139.769755 22.808365 
L 139.990878 22.205398 
L 140.433124 19.921605 
L 140.87537 18.018689 
L 141.096493 17.734767 
L 141.262335 17.85941 
L 141.538739 18.58412 
L 142.257389 20.837274 
L 142.423231 20.92185 
L 142.589073 20.768325 
L 142.865477 20.068712 
L 143.639407 17.797979 
L 143.805249 17.740507 
L 143.971092 17.896864 
L 144.247495 18.540167 
L 144.966145 20.367525 
L 145.187268 20.387022 
L 145.408391 20.069586 
L 145.905918 18.692953 
L 146.292883 17.949609 
L 146.514006 17.946424 
L 146.735129 18.271578 
L 147.232656 19.649097 
L 147.619621 20.38048 
L 147.785463 20.403478 
L 148.006586 20.13101 
L 148.393551 19.06436 
L 148.891078 17.826622 
L 149.112201 17.75224 
L 149.278043 17.947623 
L 149.554447 18.678639 
L 150.107254 20.523475 
L 150.107254 20.523475 
" clip-path="url(#p5ffe558554)" style="fill: none; stroke: #4c72b0; stroke-width: 1.5; stroke-linecap: round"/>
   </g>
   <g id="line2d_2">
    <path d="M 58.009533 17.76229 
L 59.059867 17.785377 
L 59.667955 18.044798 
L 60.718289 18.5573 
L 61.105254 18.430075 
L 61.713342 17.876003 
L 62.045027 17.739251 
L 62.26615 17.932235 
L 62.487273 18.503468 
L 62.763677 19.949833 
L 63.095361 23.042079 
L 63.537607 29.73832 
L 64.200976 44.033688 
L 64.919626 58.571739 
L 65.25131 62.042724 
L 65.472433 62.61634 
L 65.582995 62.336344 
L 65.804118 60.641036 
L 66.135802 55.486015 
L 66.68861 42.18507 
L 67.517821 23.021057 
L 67.904786 18.633767 
L 68.125909 17.776212 
L 68.23647 17.757182 
L 68.402313 18.16751 
L 68.678716 19.731707 
L 69.563208 25.55767 
L 69.784331 25.907057 
L 69.894893 25.836166 
L 70.060735 25.437046 
L 70.337139 24.115495 
L 71.442754 17.896669 
L 71.663877 17.745591 
L 71.829719 17.961776 
L 72.106123 18.836931 
L 73.101176 22.703624 
L 73.322299 22.777847 
L 73.488141 22.557206 
L 73.764545 21.736694 
L 74.87016 17.777035 
L 75.036002 17.749797 
L 75.201844 17.936649 
L 75.478248 18.654434 
L 76.528582 21.957041 
L 76.694424 21.988902 
L 76.915547 21.724291 
L 77.247232 20.788958 
L 78.076443 18.112685 
L 78.297566 17.931259 
L 78.463408 18.023217 
L 78.684531 18.433103 
L 79.126777 19.922943 
L 79.679585 21.698631 
L 79.955988 21.993601 
L 80.121831 21.906739 
L 80.342954 21.49325 
L 80.729919 20.172205 
L 81.393288 17.95427 
L 81.614411 17.735533 
L 81.780253 17.821919 
L 82.001376 18.265623 
L 82.388341 19.7332 
L 83.106991 22.513348 
L 83.328114 22.77171 
L 83.493956 22.689856 
L 83.715079 22.222253 
L 84.102044 20.663915 
L 84.765413 17.980759 
L 84.986536 17.734328 
L 85.152379 17.878189 
L 85.373502 18.518178 
L 85.705186 20.288962 
L 86.589678 25.505722 
L 86.810801 25.824484 
L 86.921362 25.743649 
L 87.087205 25.320024 
L 87.363608 23.895368 
L 88.358662 17.76403 
L 88.469223 17.76706 
L 88.635065 18.269861 
L 88.856188 19.960992 
L 89.187873 24.735958 
L 89.6854 35.956622 
L 90.625172 57.838173 
L 90.956857 61.475006 
L 91.17798 62.065401 
L 91.288541 61.798993 
L 91.509664 60.198447 
L 91.841349 55.487305 
L 92.449437 42.588995 
L 93.278648 26.047012 
L 93.720894 20.852284 
L 94.107859 18.541665 
L 94.384263 17.872436 
L 94.605386 17.734547 
L 94.88179 17.853181 
L 95.821562 18.497318 
L 96.208528 18.431188 
L 98.088073 17.7346 
L 104.224236 17.734609 
L 112.129382 17.84066 
L 112.848032 18.199816 
L 113.511401 18.462621 
L 113.898366 18.375833 
L 114.395893 17.984966 
L 114.838139 17.734676 
L 115.059262 17.870866 
L 115.280385 18.339103 
L 115.556789 19.584715 
L 115.888473 22.334721 
L 116.275438 27.541928 
L 116.828246 38.313982 
L 117.823299 58.067227 
L 118.154984 60.974866 
L 118.320826 61.271657 
L 118.431387 61.011107 
L 118.65251 59.391121 
L 118.984195 54.42819 
L 119.537002 41.567987 
L 120.366213 22.947571 
L 120.753179 18.645144 
L 120.974302 17.78372 
L 121.084863 17.750757 
L 121.250705 18.128269 
L 121.527109 19.616929 
L 122.466882 25.391504 
L 122.688005 25.582508 
L 122.853847 25.316584 
L 123.130251 24.196587 
L 124.401708 17.756594 
L 124.56755 17.783931 
L 124.788673 18.220785 
L 125.175638 19.75056 
L 125.839007 22.341436 
L 126.06013 22.622874 
L 126.225972 22.565526 
L 126.447095 22.146726 
L 126.834061 20.71898 
L 127.55271 18.023628 
L 127.829114 17.734325 
L 127.994956 17.83847 
L 128.27136 18.427677 
L 128.879448 20.630232 
L 129.266413 21.667086 
L 129.487536 21.862295 
L 129.653379 21.789561 
L 129.874502 21.420373 
L 130.316748 20.062731 
L 130.869555 18.478384 
L 131.145959 18.238219 
L 131.311801 18.331873 
L 131.588205 18.854803 
L 132.196293 20.825038 
L 132.583258 21.725148 
L 132.804381 21.850411 
L 132.970223 21.725993 
L 133.246627 21.132049 
L 133.799434 19.137681 
L 134.24168 17.905092 
L 134.462803 17.734503 
L 134.628646 17.847905 
L 134.849769 18.310626 
L 135.236734 19.758193 
L 135.900103 22.266044 
L 136.176507 22.588208 
L 136.342349 22.479579 
L 136.563472 21.994009 
L 136.950437 20.459574 
L 137.558525 18.049422 
L 137.779648 17.740835 
L 137.94549 17.819514 
L 138.166613 18.356869 
L 138.498298 19.969517 
L 139.438071 25.215944 
L 139.659194 25.457947 
L 139.825036 25.233835 
L 140.046159 24.412877 
L 140.433124 21.912992 
L 141.041212 18.077881 
L 141.262335 17.741477 
L 141.372897 17.927137 
L 141.538739 18.710724 
L 141.815143 21.45211 
L 142.202108 28.163238 
L 143.749969 59.549464 
L 143.971092 60.315771 
L 144.081653 60.15925 
L 144.247495 59.272409 
L 144.523899 56.216942 
L 144.966145 48.282894 
L 146.182321 24.725205 
L 146.624567 20.219425 
L 147.011533 18.316463 
L 147.287936 17.81103 
L 147.509059 17.736558 
L 147.840744 17.911735 
L 148.559394 18.35987 
L 149.001639 18.331791 
L 149.886131 17.920552 
L 150.107254 17.839556 
L 150.107254 17.839556 
" clip-path="url(#p5ffe558554)" style="fill: none; stroke: #dd8452; stroke-width: 1.5; stroke-linecap: round"/>
   </g>
   <g id="line2d_3">
    <path d="M 58.009533 20.923506 
L 58.230655 21.040412 
L 58.396498 20.843441 
L 58.672901 20.080766 
L 59.33627 18.063044 
L 59.557393 17.981598 
L 59.723236 18.196952 
L 60.05492 19.181102 
L 60.663008 21.096265 
L 60.884131 21.229204 
L 61.049974 21.043843 
L 61.326377 20.258428 
L 62.045027 17.861617 
L 62.210869 17.887896 
L 62.376711 18.31235 
L 62.653115 19.965295 
L 63.04008 24.029468 
L 63.648169 33.144604 
L 64.311537 46.51495 
L 64.974906 59.308323 
L 65.25131 61.628352 
L 65.361872 61.853243 
L 65.417152 61.816442 
L 65.582995 61.144896 
L 65.859398 58.421018 
L 66.301644 51.069889 
L 66.965013 35.374115 
L 67.573101 22.190553 
L 67.849505 19.657168 
L 67.960067 19.407634 
L 68.015347 19.433418 
L 68.18119 20.027659 
L 68.512874 22.692371 
L 69.065682 26.987058 
L 69.342085 27.770015 
L 69.507928 27.738015 
L 69.729051 27.175681 
L 70.171297 25.000653 
L 70.4477 24.028208 
L 70.558262 24.017065 
L 70.668823 24.324471 
L 70.834665 25.49244 
L 71.111069 29.454994 
L 71.719157 43.295141 
L 72.106123 49.768652 
L 72.327246 51.170982 
L 72.437807 51.21967 
L 72.603649 50.565332 
L 72.880053 47.924346 
L 73.37758 40.201518 
L 74.593756 20.077478 
L 74.925441 18.088999 
L 75.091283 17.860317 
L 75.201844 17.942735 
L 75.422967 18.53218 
L 76.528582 22.348725 
L 76.694424 22.319493 
L 76.915547 21.961507 
L 77.302513 20.681642 
L 78.021162 18.210671 
L 78.297566 17.943692 
L 78.463408 18.044161 
L 78.739812 18.60999 
L 79.29262 20.571775 
L 79.734865 21.807901 
L 79.955988 21.997616 
L 80.121831 21.908633 
L 80.342954 21.493675 
L 80.729919 20.172257 
L 81.393288 17.954574 
L 81.614411 17.73571 
L 81.780253 17.822003 
L 82.001376 18.265636 
L 82.388341 19.733212 
L 83.106991 22.513353 
L 83.328114 22.771713 
L 83.493956 22.689865 
L 83.715079 22.222274 
L 84.102044 20.663929 
L 84.765413 17.98085 
L 84.986536 17.734542 
L 85.152379 17.878486 
L 85.373502 18.518494 
L 85.705186 20.28906 
L 86.589678 25.509596 
L 86.810801 25.832113 
L 86.921362 25.753685 
L 87.087205 25.33422 
L 87.363608 23.916949 
L 88.358662 17.768678 
L 88.469223 17.768065 
L 88.635065 18.270907 
L 88.856188 19.977554 
L 89.187873 24.807124 
L 89.6854 36.062023 
L 90.625172 57.649274 
L 90.956857 61.38937 
L 91.17798 62.058637 
L 91.288541 61.796492 
L 91.454383 60.653842 
L 91.730787 56.927782 
L 92.781121 40.122051 
L 92.891683 40.020185 
L 93.002244 40.384531 
L 93.223367 42.310073 
L 94.052579 51.33715 
L 94.16314 51.286672 
L 94.328982 50.336661 
L 94.605386 46.589668 
L 95.102913 35.58943 
L 95.766282 22.143976 
L 96.097966 18.97276 
L 96.319089 18.383412 
L 96.429651 18.481766 
L 96.650774 19.265159 
L 97.479985 23.018965 
L 97.645827 22.978733 
L 97.86695 22.384576 
L 98.309196 20.077337 
L 98.751442 18.100597 
L 98.972565 17.776972 
L 99.138407 17.877555 
L 99.35953 18.399325 
L 100.244022 20.994339 
L 100.409864 20.937742 
L 100.630987 20.509247 
L 101.183795 18.585046 
L 101.515479 17.816618 
L 101.736602 17.759699 
L 101.957725 18.080318 
L 102.399971 19.392349 
L 102.786936 20.34282 
L 103.008059 20.472913 
L 103.173902 20.33278 
L 103.450305 19.720752 
L 104.168955 17.890521 
L 104.390078 17.853983 
L 104.611201 18.163617 
L 105.053447 19.421635 
L 105.495693 20.409436 
L 105.716816 20.444 
L 105.937939 20.124224 
L 106.324904 18.998995 
L 106.76715 17.861754 
L 106.988273 17.741461 
L 107.154115 17.908629 
L 107.430519 18.616727 
L 108.204449 20.929884 
L 108.370292 20.966898 
L 108.536134 20.761569 
L 108.812538 19.970203 
L 109.475907 17.841304 
L 109.641749 17.767172 
L 109.807591 17.989194 
L 110.083995 18.977975 
L 110.968487 22.945322 
L 111.134329 22.925076 
L 111.300171 22.527983 
L 111.631856 20.832908 
L 112.184663 17.993451 
L 112.295225 17.904099 
L 112.405786 18.088137 
L 112.571628 18.945217 
L 112.848032 22.025701 
L 113.234997 29.378683 
L 114.230051 49.529956 
L 114.506454 51.175335 
L 114.617016 51.083597 
L 114.782858 50.149295 
L 115.059262 46.722331 
L 116.109596 31.226687 
L 116.164877 31.152226 
L 116.220157 31.195742 
L 116.330719 31.634663 
L 116.551842 33.835031 
L 116.938807 40.848713 
L 117.823299 57.936317 
L 118.154984 60.701963 
L 118.320826 60.974434 
L 118.431387 60.720649 
L 118.65251 59.159567 
L 118.984195 54.329127 
L 119.481721 42.991037 
L 120.366213 22.955007 
L 120.753179 18.66865 
L 120.974302 17.810571 
L 121.084863 17.777012 
L 121.250705 18.151368 
L 121.527109 19.631753 
L 122.466882 25.391694 
L 122.688005 25.582509 
L 122.853847 25.316609 
L 123.130251 24.196673 
L 124.401708 17.756818 
L 124.56755 17.784174 
L 124.788673 18.220982 
L 125.175638 19.750611 
L 125.839007 22.341583 
L 126.06013 22.623079 
L 126.225972 22.565738 
L 126.447095 22.146892 
L 126.834061 20.719006 
L 127.55271 18.023721 
L 127.829114 17.734365 
L 127.994956 17.83847 
L 128.216079 18.274089 
L 128.658325 19.805495 
L 129.211133 21.581632 
L 129.487536 21.881687 
L 129.653379 21.81105 
L 129.874502 21.441703 
L 130.316748 20.071788 
L 130.869555 18.485731 
L 131.090678 18.28315 
L 131.25652 18.356284 
L 131.477643 18.746509 
L 131.864608 20.012943 
L 132.472697 21.940342 
L 132.69382 22.150483 
L 132.859662 22.062489 
L 133.080785 21.638238 
L 133.854715 19.808061 
L 134.020557 20.166677 
L 134.24168 21.532933 
L 134.518084 24.848209 
L 135.015611 34.343073 
L 135.67898 46.459758 
L 136.010664 49.295491 
L 136.176507 49.660128 
L 136.287068 49.496198 
L 136.45291 48.624237 
L 136.729314 45.476258 
L 137.116279 37.858438 
L 137.94549 20.550599 
L 138.166613 19.065116 
L 138.277175 19.004056 
L 138.443017 19.655857 
L 138.719421 22.129054 
L 139.38279 28.421828 
L 139.603913 29.111633 
L 139.714474 29.09167 
L 139.880316 28.605827 
L 140.15672 26.683785 
L 141.151774 17.811982 
L 141.262335 17.86653 
L 141.428177 18.609833 
L 141.704581 21.471652 
L 142.202108 30.017371 
L 143.805249 59.87277 
L 143.971092 60.221795 
L 144.081653 59.946252 
L 144.302776 58.303273 
L 144.689741 52.887116 
L 145.574233 35.910362 
L 146.292883 23.510617 
L 146.679848 20.237569 
L 146.900971 19.609294 
L 147.066813 19.576239 
L 147.287936 19.868175 
L 147.730182 20.505439 
L 147.951305 20.471132 
L 148.172428 20.142243 
L 149.112201 18.310056 
L 149.278043 18.428412 
L 149.554447 19.010569 
L 150.107254 20.617828 
L 150.107254 20.617828 
" clip-path="url(#p5ffe558554)" style="fill: none; stroke: #000000; stroke-opacity: 0.5; stroke-width: 1.5; stroke-linecap: round"/>
   </g>
  </g>
 </g>
 <defs>
  <clipPath id="p5ffe558554">
   <rect x="47.027091" y="12.96" width="112.812909" height="55.66492"/>
  </clipPath>
 </defs>
</svg>
