<?xml version="1.0" encoding="utf-8" standalone="no"?>
<!DOCTYPE svg PUBLIC "-//W3C//DTD SVG 1.1//EN"
  "http://www.w3.org/Graphics/SVG/1.1/DTD/svg11.dtd">
<svg xmlns:xlink="http://www.w3.org/1999/xlink" width="172.8pt" height="106.796273pt" viewBox="0 0 172.8 106.796273" xmlns="http://www.w3.org/2000/svg" version="1.1">
 <metadata>
  <rdf:RDF xmlns:dc="http://purl.org/dc/elements/1.1/" xmlns:cc="http://creativecommons.org/ns#" xmlns:rdf="http://www.w3.org/1999/02/22-rdf-syntax-ns#">
   <cc:Work>
    <dc:type rdf:resource="http://purl.org/dc/dcmitype/StillImage"/>
    <dc:date>2023-08-24T11:10:19.343997</dc:date>
    <dc:format>image/svg+xml</dc:format>
    <dc:creator>
     <cc:Agent>
      <dc:title>Matplotlib v3.7.1, https://matplotlib.org/</dc:title>
     </cc:Agent>
    </dc:creator>
   </cc:Work>
  </rdf:RDF>
 </metadata>
 <defs>
  <style type="text/css">*{stroke-linejoin: round; stroke-linecap: butt}</style>
 </defs>
 <g id="figure_1">
  <g id="patch_1">
   <path d="M 0 106.796273 
L 172.8 106.796273 
L 172.8 0 
L 0 0 
z
" style="fill: #ffffff"/>
  </g>
  <g id="axes_1">
   <g id="patch_2">
    <path d="M 42.045756 81.480597 
L 158.439033 81.480597 
L 158.439033 12.96 
L 42.045756 12.96 
z
" style="fill: #ffffff"/>
   </g>
   <g id="matplotlib.axis_1">
    <g id="xtick_1">
     <g id="line2d_1">
      <defs>
       <path id="m479864a058" d="M 0 0 
L 0 -6 
" style="stroke: #262626; stroke-width: 1.25"/>
      </defs>
      <g>
       <use xlink:href="#m479864a058" x="53.055931" y="81.480597" style="fill: #262626; stroke: #262626; stroke-width: 1.25"/>
      </g>
     </g>
     <g id="text_1">
      <!-- $\omega_1^{(2)}$ -->
      <g style="fill: #262626" transform="translate(44.677613 95.386004) scale(0.1 -0.1)">
       <defs>
        <path id="CMMI12-21" d="M 3802 2395 
C 3802 2580 3750 2816 3526 2816 
C 3398 2816 3251 2657 3251 2529 
C 3251 2472 3277 2434 3328 2376 
C 3424 2268 3546 2096 3546 1797 
C 3546 1567 3405 1204 3302 1007 
C 3123 656 2829 357 2496 357 
C 2093 357 1939 615 1869 975 
C 1939 1143 2086 1560 2086 1728 
C 2086 1798 2061 1856 1978 1856 
C 1933 1856 1882 1831 1850 1779 
C 1760 1638 1677 1129 1683 994 
C 1562 756 1216 357 806 357 
C 378 357 262 733 262 1096 
C 262 1758 678 2338 794 2497 
C 858 2593 902 2657 902 2669 
C 902 2714 877 2784 819 2784 
C 717 2784 685 2701 634 2625 
C 307 2121 77 1414 77 803 
C 77 408 224 -64 704 -64 
C 1235 -64 1568 391 1702 634 
C 1754 275 1946 -64 2413 -64 
C 2899 -64 3206 363 3437 879 
C 3603 1249 3802 2045 3802 2395 
z
" transform="scale(0.015625)"/>
        <path id="CMR17-28" d="M 1958 -1561 
C 1958 -1555 1958 -1542 1939 -1523 
C 1645 -1224 858 -407 858 1581 
C 858 3569 1632 4379 1946 4697 
C 1946 4704 1958 4717 1958 4736 
C 1958 4755 1939 4768 1914 4768 
C 1843 4768 1299 4296 986 3594 
C 666 2887 576 2199 576 1588 
C 576 1128 621 351 1005 -471 
C 1312 -1135 1837 -1600 1914 -1600 
C 1946 -1600 1958 -1587 1958 -1561 
z
" transform="scale(0.015625)"/>
        <path id="CMR17-32" d="M 2669 989 
L 2554 989 
C 2490 536 2438 459 2413 420 
C 2381 369 1920 369 1830 369 
L 602 369 
C 832 619 1280 1072 1824 1597 
C 2214 1967 2669 2402 2669 3035 
C 2669 3790 2067 4224 1395 4224 
C 691 4224 262 3604 262 3030 
C 262 2780 448 2748 525 2748 
C 589 2748 781 2787 781 3010 
C 781 3207 614 3264 525 3264 
C 486 3264 448 3258 422 3245 
C 544 3790 915 4058 1306 4058 
C 1862 4058 2227 3617 2227 3035 
C 2227 2479 1901 2000 1536 1584 
L 262 146 
L 262 0 
L 2515 0 
L 2669 989 
z
" transform="scale(0.015625)"/>
        <path id="CMR17-29" d="M 1683 1581 
C 1683 2040 1638 2817 1254 3639 
C 947 4303 422 4768 346 4768 
C 326 4768 301 4761 301 4729 
C 301 4717 307 4710 314 4697 
C 621 4378 1402 3568 1402 1584 
C 1402 -407 627 -1217 314 -1537 
C 307 -1549 301 -1556 301 -1568 
C 301 -1600 326 -1600 346 -1600 
C 416 -1600 960 -1128 1274 -426 
C 1594 281 1683 969 1683 1581 
z
" transform="scale(0.015625)"/>
        <path id="CMR17-31" d="M 1702 4058 
C 1702 4192 1696 4192 1606 4192 
C 1357 3916 979 3827 621 3827 
C 602 3827 570 3827 563 3808 
C 557 3795 557 3782 557 3648 
C 755 3648 1088 3686 1344 3839 
L 1344 461 
C 1344 236 1331 160 781 160 
L 589 160 
L 589 0 
C 896 0 1216 0 1523 0 
C 1830 0 2150 0 2458 0 
L 2458 160 
L 2266 160 
C 1715 160 1702 230 1702 458 
L 1702 4058 
z
" transform="scale(0.015625)"/>
       </defs>
       <use xlink:href="#CMMI12-21" transform="scale(0.996264)"/>
       <use xlink:href="#CMR17-28" transform="translate(64.318346 51.691943) scale(0.697382)"/>
       <use xlink:href="#CMR17-32" transform="translate(89.014766 51.691943) scale(0.697382)"/>
       <use xlink:href="#CMR17-29" transform="translate(120.997948 51.691943) scale(0.697382)"/>
       <use xlink:href="#CMR17-31" transform="translate(60.743753 -26.578082) scale(0.697382)"/>
      </g>
     </g>
    </g>
    <g id="xtick_2">
     <g id="line2d_2">
      <g>
       <use xlink:href="#m479864a058" x="67.526446" y="81.480597" style="fill: #262626; stroke: #262626; stroke-width: 1.25"/>
      </g>
     </g>
     <g id="text_2">
      <!-- $\omega_0^{(1)}$ -->
      <g style="fill: #262626" transform="translate(59.148128 95.386004) scale(0.1 -0.1)">
       <defs>
        <path id="CMR17-30" d="M 2688 2025 
C 2688 2416 2682 3080 2413 3591 
C 2176 4039 1798 4198 1466 4198 
C 1158 4198 768 4058 525 3597 
C 269 3118 243 2524 243 2025 
C 243 1661 250 1106 448 619 
C 723 -39 1216 -128 1466 -128 
C 1760 -128 2208 -7 2470 600 
C 2662 1042 2688 1559 2688 2025 
z
M 1466 -26 
C 1056 -26 813 325 723 812 
C 653 1188 653 1738 653 2096 
C 653 2588 653 2997 736 3387 
C 858 3929 1216 4096 1466 4096 
C 1728 4096 2067 3923 2189 3400 
C 2272 3036 2278 2607 2278 2096 
C 2278 1680 2278 1169 2202 792 
C 2067 95 1690 -26 1466 -26 
z
" transform="scale(0.015625)"/>
       </defs>
       <use xlink:href="#CMMI12-21" transform="scale(0.996264)"/>
       <use xlink:href="#CMR17-28" transform="translate(64.318346 51.691943) scale(0.697382)"/>
       <use xlink:href="#CMR17-31" transform="translate(89.014766 51.691943) scale(0.697382)"/>
       <use xlink:href="#CMR17-29" transform="translate(120.997948 51.691943) scale(0.697382)"/>
       <use xlink:href="#CMR17-30" transform="translate(60.743753 -26.578082) scale(0.697382)"/>
      </g>
     </g>
    </g>
    <g id="xtick_3">
     <g id="line2d_3">
      <g>
       <use xlink:href="#m479864a058" x="86.086455" y="81.480597" style="fill: #262626; stroke: #262626; stroke-width: 1.25"/>
      </g>
     </g>
     <g id="text_3">
      <!-- $\omega_L$ -->
      <g style="fill: #262626" transform="translate(80.252992 91.899095) scale(0.1 -0.1)">
       <defs>
        <path id="CMMI12-4c" d="M 2349 3861 
C 2406 4103 2426 4167 2989 4167 
C 3162 4167 3206 4167 3206 4288 
C 3206 4352 3136 4352 3110 4352 
C 2982 4352 2835 4352 2707 4352 
L 1850 4352 
C 1728 4352 1587 4352 1466 4352 
C 1414 4352 1344 4352 1344 4231 
C 1344 4167 1402 4167 1498 4167 
C 1888 4167 1888 4116 1888 4046 
C 1888 4034 1888 3995 1862 3899 
L 998 472 
C 941 249 928 185 480 185 
C 358 185 294 185 294 70 
C 294 0 333 0 461 0 
L 3328 0 
C 3469 0 3475 6 3520 121 
L 4013 1478 
C 4026 1510 4038 1548 4038 1567 
C 4038 1605 4006 1631 3974 1631 
C 3968 1631 3936 1631 3923 1605 
C 3910 1599 3910 1586 3859 1465 
C 3654 905 3366 185 2285 185 
L 1670 185 
C 1581 185 1568 185 1530 192 
C 1459 198 1453 211 1453 262 
C 1453 307 1466 345 1478 401 
L 2349 3861 
z
" transform="scale(0.015625)"/>
       </defs>
       <use xlink:href="#CMMI12-21" transform="scale(0.996264)"/>
       <use xlink:href="#CMMI12-4c" transform="translate(60.743753 -14.943915) scale(0.697382)"/>
      </g>
     </g>
    </g>
    <g id="xtick_4">
     <g id="line2d_4">
      <g>
       <use xlink:href="#m479864a058" x="111.567146" y="81.480597" style="fill: #262626; stroke: #262626; stroke-width: 1.25"/>
      </g>
     </g>
     <g id="text_4">
      <!-- $\omega_1^{(1)}$ -->
      <g style="fill: #262626" transform="translate(103.188828 95.386004) scale(0.1 -0.1)">
       <use xlink:href="#CMMI12-21" transform="scale(0.996264)"/>
       <use xlink:href="#CMR17-28" transform="translate(64.318346 51.691943) scale(0.697382)"/>
       <use xlink:href="#CMR17-31" transform="translate(89.014766 51.691943) scale(0.697382)"/>
       <use xlink:href="#CMR17-29" transform="translate(120.997948 51.691943) scale(0.697382)"/>
       <use xlink:href="#CMR17-31" transform="translate(60.743753 -26.578082) scale(0.697382)"/>
      </g>
     </g>
    </g>
    <g id="xtick_5">
     <g id="line2d_5">
      <g>
       <use xlink:href="#m479864a058" x="125.408508" y="81.480597" style="fill: #262626; stroke: #262626; stroke-width: 1.25"/>
      </g>
     </g>
     <g id="text_5">
      <!-- $\omega_0^{(2)}$ -->
      <g style="fill: #262626" transform="translate(117.03019 95.386004) scale(0.1 -0.1)">
       <use xlink:href="#CMMI12-21" transform="scale(0.996264)"/>
       <use xlink:href="#CMR17-28" transform="translate(64.318346 51.691943) scale(0.697382)"/>
       <use xlink:href="#CMR17-32" transform="translate(89.014766 51.691943) scale(0.697382)"/>
       <use xlink:href="#CMR17-29" transform="translate(120.997948 51.691943) scale(0.697382)"/>
       <use xlink:href="#CMR17-30" transform="translate(60.743753 -26.578082) scale(0.697382)"/>
      </g>
     </g>
    </g>
   </g>
   <g id="matplotlib.axis_2">
    <g id="text_6">
     <!-- Amplitude -->
     <g style="fill: #262626" transform="translate(36.108577 68.612322) rotate(-90) scale(0.1 -0.1)">
      <defs>
       <path id="CMSS17-41" d="M 2272 4416 
L 1722 4416 
L 166 0 
L 653 0 
L 1101 1280 
L 2816 1280 
L 3270 0 
L 3827 0 
L 2272 4416 
z
M 2694 1637 
L 1222 1637 
C 1530 2528 1914 3638 1958 3925 
L 1965 3925 
C 2010 3663 2138 3281 2246 2956 
L 2694 1637 
z
" transform="scale(0.015625)"/>
       <path id="CMSS17-6d" d="M 4288 1877 
C 4288 2308 4179 2816 3462 2816 
C 2982 2816 2694 2516 2566 2331 
C 2451 2670 2182 2816 1798 2816 
C 1363 2816 1088 2568 941 2389 
L 941 2758 
L 474 2758 
L 474 0 
L 960 0 
L 960 1559 
C 960 1939 1101 2428 1555 2428 
C 2138 2428 2138 2016 2138 1829 
L 2138 0 
L 2624 0 
L 2624 1559 
C 2624 1939 2765 2428 3219 2428 
C 3802 2428 3802 2016 3802 1829 
L 3802 0 
L 4288 0 
L 4288 1877 
z
" transform="scale(0.015625)"/>
       <path id="CMSS17-70" d="M 966 333 
C 1178 129 1466 -5 1773 -5 
C 2368 -5 2880 603 2880 1412 
C 2880 2159 2496 2816 1946 2816 
C 1626 2816 1242 2702 954 2472 
L 954 2765 
L 480 2765 
L 480 -1216 
L 966 -1216 
L 966 333 
z
M 966 2100 
C 1018 2176 1235 2415 1587 2415 
C 2035 2415 2394 1960 2394 1412 
C 2394 787 1958 384 1530 384 
C 1402 384 1267 415 1139 523 
C 966 674 966 768 966 857 
L 966 2100 
z
" transform="scale(0.015625)"/>
       <path id="CMSS17-6c" d="M 947 4416 
L 474 4416 
L 474 0 
L 947 0 
L 947 4416 
z
" transform="scale(0.015625)"/>
       <path id="CMSS17-69" d="M 979 4183 
L 442 4183 
L 442 3648 
L 979 3648 
L 979 4183 
z
M 947 2739 
L 474 2739 
L 474 0 
L 947 0 
L 947 2739 
z
" transform="scale(0.015625)"/>
       <path id="CMSS17-74" d="M 1069 2368 
L 1901 2368 
L 1901 2737 
L 1069 2737 
L 1069 3520 
L 614 3520 
L 614 2737 
L 109 2737 
L 109 2368 
L 602 2368 
L 602 749 
C 602 384 685 -64 1107 -64 
C 1427 -64 1722 25 2003 172 
L 1901 548 
C 1747 414 1562 337 1363 337 
C 1082 337 1069 696 1069 856 
L 1069 2368 
z
" transform="scale(0.015625)"/>
       <path id="CMSS17-75" d="M 2618 2739 
L 2131 2739 
L 2131 972 
C 2131 498 1786 306 1421 306 
C 998 306 960 447 960 709 
L 960 2739 
L 474 2739 
L 474 678 
C 474 179 646 -64 1088 -64 
C 1306 -64 1798 -13 2144 306 
L 2144 0 
L 2618 0 
L 2618 2739 
z
" transform="scale(0.015625)"/>
       <path id="CMSS17-64" d="M 2611 4416 
L 2138 4416 
L 2138 2438 
C 1939 2603 1613 2756 1254 2756 
C 672 2756 211 2131 211 1347 
C 211 562 666 -64 1235 -64 
C 1677 -64 1971 172 2125 306 
L 2125 -13 
L 2611 -13 
L 2611 4416 
z
M 2125 836 
C 2125 747 2125 653 1926 482 
C 1798 375 1645 325 1498 325 
C 1152 325 698 576 698 1340 
C 698 2134 1210 2368 1562 2368 
C 1798 2368 1990 2254 2125 2065 
L 2125 836 
z
" transform="scale(0.015625)"/>
       <path id="CMSS17-65" d="M 2502 1377 
C 2502 1590 2490 2003 2285 2345 
C 2061 2713 1696 2816 1421 2816 
C 755 2816 192 2188 192 1375 
C 192 582 774 -64 1510 -64 
C 1798 -64 2150 19 2470 248 
C 2470 274 2458 414 2451 420 
C 2451 433 2432 630 2432 656 
C 2125 407 1773 325 1517 325 
C 1107 325 666 667 646 1377 
L 2502 1377 
z
M 698 1728 
C 781 2084 1062 2421 1421 2421 
C 1517 2421 1965 2421 2080 1728 
L 698 1728 
z
" transform="scale(0.015625)"/>
      </defs>
      <use xlink:href="#CMSS17-41" transform="scale(0.996264)"/>
      <use xlink:href="#CMSS17-6d" transform="translate(62.217855 0) scale(0.996264)"/>
      <use xlink:href="#CMSS17-70" transform="translate(136.447109 0) scale(0.996264)"/>
      <use xlink:href="#CMSS17-6c" transform="translate(184.652052 0) scale(0.996264)"/>
      <use xlink:href="#CMSS17-69" transform="translate(206.832776 0) scale(0.996264)"/>
      <use xlink:href="#CMSS17-74" transform="translate(229.013499 0) scale(0.996264)"/>
      <use xlink:href="#CMSS17-75" transform="translate(262.845065 0) scale(0.996264)"/>
      <use xlink:href="#CMSS17-64" transform="translate(311.050008 0) scale(0.996264)"/>
      <use xlink:href="#CMSS17-65" transform="translate(359.254952 0) scale(0.996264)"/>
     </g>
    </g>
   </g>
   <g id="patch_3">
    <path d="M 42.045756 16.074573 
L 43.758771 21.236137 
L 42.04607 19.687668 
L 42.04607 76.84672 
L 42.045441 76.84672 
L 42.045441 19.687668 
L 40.332741 21.236137 
z
" style="fill: #1a1a1a; stroke: #1a1a1a; stroke-linejoin: miter"/>
   </g>
   <g id="patch_4">
    <path d="M 158.439033 76.84672 
L 152.619369 78.366024 
L 154.365268 76.875968 
L 42.045756 76.875968 
L 42.045756 76.817473 
L 154.365268 76.817473 
L 152.619369 75.327417 
z
" style="fill: #1a1a1a; stroke: #1a1a1a; stroke-linejoin: miter"/>
   </g>
   <g id="line2d_6">
    <path d="M 41.731179 73.93458 
L 58.718306 73.757152 
L 62.8078 73.523564 
L 64.380682 73.253489 
L 65.324411 72.871328 
L 65.953564 72.288244 
L 66.26814 71.692935 
L 66.582717 70.464137 
L 66.897293 66.441554 
L 67.21187 18.836943 
L 67.526446 68.226782 
L 67.841023 71.027406 
L 68.155599 72.032683 
L 68.784752 72.86475 
L 69.413905 73.228786 
L 70.357634 73.503991 
L 72.245092 73.743412 
L 75.705433 73.892875 
L 82.626114 73.930405 
L 95.838324 73.765811 
L 102.444429 73.500199 
L 105.590193 73.167088 
L 107.163076 72.817754 
L 108.106805 72.450047 
L 108.735958 72.062177 
L 109.365111 71.438516 
L 109.679687 70.958932 
L 109.994263 70.269694 
L 110.30884 69.194778 
L 110.623416 67.284535 
L 110.937993 62.946051 
L 111.252569 43.470661 
L 111.567146 32.910357 
L 111.881722 61.751294 
L 112.196298 66.82358 
L 112.510875 68.935592 
L 112.825451 70.093481 
L 113.454604 71.328413 
L 114.083757 71.977298 
L 115.027486 72.524925 
L 116.285792 72.924035 
L 118.17325 73.243673 
L 121.319015 73.505797 
L 126.98139 73.711383 
L 138.620718 73.86686 
L 158.753609 73.957294 
L 158.753609 73.957294 
" clip-path="url(#p59613f0d40)" style="fill: none; stroke: #4c72b0; stroke-width: 1.5; stroke-linecap: round"/>
   </g>
   <g id="line2d_7">
    <path d="M 41.731179 73.851641 
L 47.393555 73.646511 
L 49.59559 73.371797 
L 50.539319 73.089426 
L 51.168472 72.717972 
L 51.483048 72.397475 
L 51.797625 71.872386 
L 52.112201 70.854834 
L 52.426778 68.03984 
L 52.741354 22.614264 
L 53.055931 66.298707 
L 53.370507 70.490221 
L 53.685083 71.758713 
L 53.99966 72.371334 
L 54.628813 72.970236 
L 55.572542 73.362178 
L 57.145424 73.638723 
L 59.976612 73.831832 
L 65.953564 73.965434 
L 80.109503 74.020771 
L 106.219346 73.887143 
L 115.971215 73.657281 
L 119.746133 73.373329 
L 121.633591 73.04031 
L 122.891897 72.580513 
L 123.52105 72.162351 
L 124.150203 71.429987 
L 124.464779 70.809647 
L 124.779355 69.815803 
L 125.093932 67.965748 
L 125.408508 63.315452 
L 125.723085 29.718579 
L 126.037661 53.044631 
L 126.352237 65.563136 
L 126.666814 68.735011 
L 126.98139 70.182475 
L 127.610543 71.548124 
L 128.239696 72.202456 
L 129.183425 72.724499 
L 130.441731 73.088755 
L 132.32919 73.371113 
L 135.78953 73.611353 
L 142.395635 73.792114 
L 157.180727 73.92212 
L 158.753609 73.929169 
L 158.753609 73.929169 
" clip-path="url(#p59613f0d40)" style="fill: none; stroke: #dd8452; stroke-width: 1.5; stroke-linecap: round"/>
   </g>
   <g id="line2d_8">
    <path d="M 41.731179 73.833882 
L 47.708131 73.642874 
L 49.59559 73.414903 
L 50.539319 73.146328 
L 51.168472 72.785427 
L 51.483048 72.470768 
L 51.797625 71.952101 
L 52.112201 70.942063 
L 52.426778 68.137978 
L 52.741354 22.798574 
L 53.055931 66.21232 
L 53.370507 70.389798 
L 53.685083 71.649162 
L 53.99966 72.253567 
L 54.628813 72.836401 
L 55.572542 73.203208 
L 56.830848 73.404621 
L 59.032883 73.511441 
L 62.178647 73.434687 
L 64.066105 73.20477 
L 65.009835 72.920461 
L 65.638988 72.529982 
L 65.953564 72.181629 
L 66.26814 71.589585 
L 66.582717 70.365076 
L 66.897293 66.351619 
L 67.21187 19.035465 
L 67.526446 68.336514 
L 67.841023 71.130299 
L 68.155599 72.131913 
L 68.784752 72.958728 
L 69.413905 73.318244 
L 70.357634 73.586718 
L 72.245092 73.81018 
L 75.390857 73.913278 
L 83.255267 73.871164 
L 97.725783 73.597253 
L 103.073582 73.307394 
L 105.90477 72.948023 
L 107.477652 72.537506 
L 108.421381 72.091517 
L 109.050534 71.601521 
L 109.679687 70.764125 
L 109.994263 70.072837 
L 110.30884 68.996472 
L 110.623416 67.086172 
L 110.937993 62.751826 
L 111.252569 43.307114 
L 111.567146 33.203766 
L 111.881722 61.997697 
L 112.196298 67.064831 
L 112.510875 69.17695 
L 112.825451 70.336669 
L 113.454604 71.577234 
L 114.083757 72.232741 
L 115.027486 72.790344 
L 116.285792 73.199036 
L 117.858674 73.468743 
L 119.746133 73.552295 
L 121.319015 73.384502 
L 122.57732 73.018344 
L 123.206473 72.687525 
L 123.835626 72.14367 
L 124.150203 71.718326 
L 124.464779 71.096691 
L 124.779355 70.101905 
L 125.093932 68.252182 
L 125.408508 63.606972 
L 125.723085 30.066028 
L 126.037661 52.815675 
L 126.352237 65.315519 
L 126.666814 68.485225 
L 126.98139 69.933574 
L 127.610543 71.303667 
L 128.239696 71.963599 
L 129.183425 72.494546 
L 130.441731 72.870531 
L 132.32919 73.169243 
L 135.474954 73.418142 
L 141.451906 73.630558 
L 153.720386 73.800606 
L 158.753609 73.837158 
L 158.753609 73.837158 
" clip-path="url(#p59613f0d40)" style="fill: none; stroke: #000000; stroke-opacity: 0.45; stroke-width: 3; stroke-linecap: round"/>
   </g>
   <g id="line2d_9">
    <path d="M 86.086455 81.480597 
L 86.086455 12.96 
" clip-path="url(#p59613f0d40)" style="fill: none; stroke-dasharray: 5.55,2.4; stroke-dashoffset: 0; stroke: #000000; stroke-width: 1.5"/>
   </g>
   <g id="legend_1">
    <g id="patch_5">
     <path d="M 109.746661 54.053629 
L 152.839033 54.053629 
Q 154.439033 54.053629 154.439033 52.453629 
L 154.439033 18.56 
Q 154.439033 16.96 152.839033 16.96 
L 109.746661 16.96 
Q 108.146661 16.96 108.146661 18.56 
L 108.146661 52.453629 
Q 108.146661 54.053629 109.746661 54.053629 
z
" style="fill: #ffffff; opacity: 0.8; stroke: #cccccc; stroke-linejoin: miter"/>
    </g>
    <g id="line2d_10">
     <path d="M 111.346661 23.582196 
L 119.346661 23.582196 
L 127.346661 23.582196 
" style="fill: none; stroke: #4c72b0; stroke-width: 1.5; stroke-linecap: round"/>
    </g>
    <g id="text_7">
     <!-- $^{13}C_1$ -->
     <g style="fill: #262626" transform="translate(133.746661 26.382196) scale(0.08 -0.08)">
      <defs>
       <path id="CMR17-33" d="M 1414 2157 
C 1984 2157 2234 1662 2234 1090 
C 2234 320 1824 25 1453 25 
C 1114 25 563 194 390 693 
C 422 680 454 680 486 680 
C 640 680 755 782 755 948 
C 755 1133 614 1216 486 1216 
C 378 1216 211 1165 211 926 
C 211 335 787 -128 1466 -128 
C 2176 -128 2720 430 2720 1085 
C 2720 1707 2208 2157 1600 2227 
C 2086 2328 2554 2756 2554 3329 
C 2554 3820 2048 4179 1472 4179 
C 890 4179 378 3829 378 3329 
C 378 3110 544 3072 627 3072 
C 762 3072 877 3155 877 3321 
C 877 3486 762 3569 627 3569 
C 602 3569 570 3569 544 3557 
C 730 3959 1235 4032 1459 4032 
C 1683 4032 2106 3925 2106 3320 
C 2106 3143 2080 2828 1862 2550 
C 1670 2304 1453 2304 1242 2284 
C 1210 2284 1062 2269 1037 2269 
C 992 2263 966 2257 966 2208 
C 966 2163 973 2157 1101 2157 
L 1414 2157 
z
" transform="scale(0.015625)"/>
       <path id="CMMI12-43" d="M 4781 4423 
C 4781 4480 4736 4480 4723 4480 
C 4710 4480 4685 4480 4634 4416 
L 4192 3882 
C 3968 4264 3616 4480 3136 4480 
C 1754 4480 320 3088 320 1595 
C 320 533 1069 -128 2003 -128 
C 2515 -128 2963 88 3334 400 
C 3891 863 4058 1481 4058 1531 
C 4058 1588 4006 1588 3987 1588 
C 3930 1588 3923 1550 3910 1524 
C 3616 534 2752 57 2112 57 
C 1434 57 845 489 845 1391 
C 845 1595 909 2700 1632 3532 
C 1984 3939 2586 4295 3194 4295 
C 3898 4295 4211 3717 4211 3068 
C 4211 2903 4192 2764 4192 2738 
C 4192 2681 4256 2681 4275 2681 
C 4346 2681 4352 2687 4378 2801 
L 4781 4423 
z
" transform="scale(0.015625)"/>
      </defs>
      <use xlink:href="#CMR17-31" transform="translate(0 36.153639) scale(0.697382)"/>
      <use xlink:href="#CMR17-33" transform="translate(31.983182 36.153639) scale(0.697382)"/>
      <use xlink:href="#CMMI12-43" transform="translate(64.464496 0) scale(0.996264)"/>
      <use xlink:href="#CMR17-31" transform="translate(134.256533 -14.943915) scale(0.697382)"/>
     </g>
    </g>
    <g id="line2d_11">
     <path d="M 111.346661 35.354138 
L 119.346661 35.354138 
L 127.346661 35.354138 
" style="fill: none; stroke: #dd8452; stroke-width: 1.5; stroke-linecap: round"/>
    </g>
    <g id="text_8">
     <!-- $^{13}C_2$ -->
     <g style="fill: #262626" transform="translate(133.746661 38.154138) scale(0.08 -0.08)">
      <use xlink:href="#CMR17-31" transform="translate(0 36.153639) scale(0.697382)"/>
      <use xlink:href="#CMR17-33" transform="translate(31.983182 36.153639) scale(0.697382)"/>
      <use xlink:href="#CMMI12-43" transform="translate(64.464496 0) scale(0.996264)"/>
      <use xlink:href="#CMR17-32" transform="translate(134.256533 -14.943915) scale(0.697382)"/>
     </g>
    </g>
    <g id="line2d_12">
     <path d="M 111.346661 46.503883 
L 119.346661 46.503883 
L 127.346661 46.503883 
" style="fill: none; stroke: #000000; stroke-opacity: 0.45; stroke-width: 3; stroke-linecap: round"/>
    </g>
    <g id="text_9">
     <!-- Both -->
     <g style="fill: #262626" transform="translate(133.746661 49.303883) scale(0.08 -0.08)">
      <defs>
       <path id="CMSS17-42" d="M 570 4416 
L 570 0 
L 2163 0 
C 3034 0 3667 574 3667 1200 
C 3667 1685 3251 2176 2502 2317 
C 3334 2558 3501 3040 3501 3313 
C 3501 3883 2874 4416 1997 4416 
L 570 4416 
z
M 1088 2496 
L 1088 4059 
L 1824 4059 
C 2483 4059 3002 3724 3002 3306 
C 3002 2926 2592 2496 1766 2496 
L 1088 2496 
z
M 1088 357 
L 1088 2107 
L 1939 2107 
C 2630 2107 3162 1679 3162 1206 
C 3162 772 2694 357 1984 357 
L 1088 357 
z
" transform="scale(0.015625)"/>
       <path id="CMSS17-6f" d="M 2829 1356 
C 2829 2176 2221 2816 1504 2816 
C 768 2816 173 2157 173 1356 
C 173 544 787 -64 1498 -64 
C 2227 -64 2829 563 2829 1356 
z
M 1504 337 
C 1050 337 659 709 659 1408 
C 659 2151 1114 2427 1498 2427 
C 1914 2427 2342 2126 2342 1408 
C 2342 683 1926 337 1504 337 
z
" transform="scale(0.015625)"/>
       <path id="CMSS17-68" d="M 2618 1891 
C 2618 2292 2522 2820 1798 2820 
C 1395 2820 1133 2623 947 2407 
L 947 4448 
L 474 4448 
L 474 32 
L 960 32 
L 960 1573 
C 960 1973 1114 2432 1549 2432 
C 2112 2432 2131 2056 2131 1839 
L 2131 32 
L 2618 32 
L 2618 1891 
z
" transform="scale(0.015625)"/>
      </defs>
      <use xlink:href="#CMSS17-42" transform="scale(0.996264)"/>
      <use xlink:href="#CMSS17-6f" transform="translate(62.33804 0) scale(0.996264)"/>
      <use xlink:href="#CMSS17-74" transform="translate(109.181664 0) scale(0.996264)"/>
      <use xlink:href="#CMSS17-68" transform="translate(143.01323 0) scale(0.996264)"/>
     </g>
    </g>
   </g>
  </g>
 </g>
 <defs>
  <clipPath id="p59613f0d40">
   <rect x="42.045756" y="12.96" width="116.393277" height="68.520597"/>
  </clipPath>
 </defs>
</svg>
