<?xml version="1.0" encoding="utf-8" standalone="no"?>
<!DOCTYPE svg PUBLIC "-//W3C//DTD SVG 1.1//EN"
  "http://www.w3.org/Graphics/SVG/1.1/DTD/svg11.dtd">
<svg xmlns:xlink="http://www.w3.org/1999/xlink" width="172.8pt" height="106.796273pt" viewBox="0 0 172.8 106.796273" xmlns="http://www.w3.org/2000/svg" version="1.1">
 <metadata>
  <rdf:RDF xmlns:dc="http://purl.org/dc/elements/1.1/" xmlns:cc="http://creativecommons.org/ns#" xmlns:rdf="http://www.w3.org/1999/02/22-rdf-syntax-ns#">
   <cc:Work>
    <dc:type rdf:resource="http://purl.org/dc/dcmitype/StillImage"/>
    <dc:date>2023-08-24T11:21:55.739226</dc:date>
    <dc:format>image/svg+xml</dc:format>
    <dc:creator>
     <cc:Agent>
      <dc:title>Matplotlib v3.7.1, https://matplotlib.org/</dc:title>
     </cc:Agent>
    </dc:creator>
   </cc:Work>
  </rdf:RDF>
 </metadata>
 <defs>
  <style type="text/css">*{stroke-linejoin: round; stroke-linecap: butt}</style>
 </defs>
 <g id="figure_1">
  <g id="patch_1">
   <path d="M 0 106.796273 
L 172.8 106.796273 
L 172.8 0 
L 0 0 
z
" style="fill: #ffffff"/>
  </g>
  <g id="axes_1">
   <g id="patch_2">
    <path d="M 52.008426 81.480597 
L 159.84 81.480597 
L 159.84 12.96 
L 52.008426 12.96 
z
" style="fill: #ffffff"/>
   </g>
   <g id="matplotlib.axis_1">
    <g id="xtick_1">
     <g id="line2d_1">
      <defs>
       <path id="md7761d024e" d="M 0 0 
L 0 -6 
" style="stroke: #262626; stroke-width: 1.25"/>
      </defs>
      <g>
       <use xlink:href="#md7761d024e" x="95.758181" y="81.480597" style="fill: #262626; stroke: #262626; stroke-width: 1.25"/>
      </g>
     </g>
     <g id="text_1">
      <!-- $\tau_r^{(1)}, \, \tau_r^{(2)}$ -->
      <g style="fill: #262626" transform="translate(76.784175 95.386004) scale(0.1 -0.1)">
       <defs>
        <path id="CMMI12-1c" d="M 1837 2408 
L 2899 2408 
C 2982 2408 3194 2408 3194 2612 
C 3194 2752 3072 2752 2957 2752 
L 1197 2752 
C 1050 2752 832 2752 538 2440 
C 371 2255 166 1917 166 1879 
C 166 1841 198 1828 237 1828 
C 282 1828 288 1847 320 1885 
C 653 2408 986 2408 1146 2408 
L 1677 2408 
L 1011 223 
C 979 127 979 114 979 95 
C 979 25 1024 -64 1152 -64 
C 1350 -64 1382 108 1402 203 
L 1837 2408 
z
" transform="scale(0.015625)"/>
        <path id="CMR17-28" d="M 1958 -1561 
C 1958 -1555 1958 -1542 1939 -1523 
C 1645 -1224 858 -407 858 1581 
C 858 3569 1632 4379 1946 4697 
C 1946 4704 1958 4717 1958 4736 
C 1958 4755 1939 4768 1914 4768 
C 1843 4768 1299 4296 986 3594 
C 666 2887 576 2199 576 1588 
C 576 1128 621 351 1005 -471 
C 1312 -1135 1837 -1600 1914 -1600 
C 1946 -1600 1958 -1587 1958 -1561 
z
" transform="scale(0.015625)"/>
        <path id="CMR17-31" d="M 1702 4058 
C 1702 4192 1696 4192 1606 4192 
C 1357 3916 979 3827 621 3827 
C 602 3827 570 3827 563 3808 
C 557 3795 557 3782 557 3648 
C 755 3648 1088 3686 1344 3839 
L 1344 461 
C 1344 236 1331 160 781 160 
L 589 160 
L 589 0 
C 896 0 1216 0 1523 0 
C 1830 0 2150 0 2458 0 
L 2458 160 
L 2266 160 
C 1715 160 1702 230 1702 458 
L 1702 4058 
z
" transform="scale(0.015625)"/>
        <path id="CMR17-29" d="M 1683 1581 
C 1683 2040 1638 2817 1254 3639 
C 947 4303 422 4768 346 4768 
C 326 4768 301 4761 301 4729 
C 301 4717 307 4710 314 4697 
C 621 4378 1402 3568 1402 1584 
C 1402 -407 627 -1217 314 -1537 
C 307 -1549 301 -1556 301 -1568 
C 301 -1600 326 -1600 346 -1600 
C 416 -1600 960 -1128 1274 -426 
C 1594 281 1683 969 1683 1581 
z
" transform="scale(0.015625)"/>
        <path id="CMMI12-72" d="M 2490 2612 
C 2291 2574 2189 2433 2189 2293 
C 2189 2139 2310 2088 2400 2088 
C 2579 2088 2726 2242 2726 2433 
C 2726 2638 2528 2816 2208 2816 
C 1952 2816 1658 2701 1389 2312 
C 1344 2650 1088 2816 832 2816 
C 582 2816 454 2625 378 2484 
C 269 2254 173 1871 173 1839 
C 173 1814 198 1782 243 1782 
C 294 1782 301 1788 339 1935 
C 435 2318 557 2689 813 2689 
C 966 2689 1011 2580 1011 2395 
C 1011 2254 947 2005 902 1807 
L 723 1118 
C 698 996 627 709 595 594 
C 550 428 480 128 480 96 
C 480 6 550 -64 646 -64 
C 717 -64 838 -19 877 109 
C 896 160 1133 1124 1171 1271 
C 1203 1411 1242 1546 1274 1686 
C 1299 1775 1325 1878 1344 1961 
C 1363 2018 1536 2331 1696 2472 
C 1773 2542 1939 2689 2202 2689 
C 2304 2689 2406 2670 2490 2612 
z
" transform="scale(0.015625)"/>
        <path id="CMMI12-3b" d="M 1248 -31 
C 1248 343 1126 619 864 619 
C 659 619 557 453 557 313 
C 557 172 653 0 870 0 
C 954 0 1024 26 1082 83 
C 1094 96 1101 96 1107 96 
C 1120 96 1120 5 1120 -27 
C 1120 -240 1082 -659 710 -1080 
C 640 -1157 640 -1170 640 -1183 
C 640 -1216 672 -1248 704 -1248 
C 755 -1248 1248 -771 1248 -31 
z
" transform="scale(0.015625)"/>
        <path id="CMR17-32" d="M 2669 989 
L 2554 989 
C 2490 536 2438 459 2413 420 
C 2381 369 1920 369 1830 369 
L 602 369 
C 832 619 1280 1072 1824 1597 
C 2214 1967 2669 2402 2669 3035 
C 2669 3790 2067 4224 1395 4224 
C 691 4224 262 3604 262 3030 
C 262 2780 448 2748 525 2748 
C 589 2748 781 2787 781 3010 
C 781 3207 614 3264 525 3264 
C 486 3264 448 3258 422 3245 
C 544 3790 915 4058 1306 4058 
C 1862 4058 2227 3617 2227 3035 
C 2227 2479 1901 2000 1536 1584 
L 262 146 
L 262 0 
L 2515 0 
L 2669 989 
z
" transform="scale(0.015625)"/>
       </defs>
       <use xlink:href="#CMMI12-1c" transform="scale(0.996264)"/>
       <use xlink:href="#CMR17-28" transform="translate(53.491165 51.691943) scale(0.697382)"/>
       <use xlink:href="#CMR17-31" transform="translate(78.187586 51.691943) scale(0.697382)"/>
       <use xlink:href="#CMR17-29" transform="translate(110.170768 51.691943) scale(0.697382)"/>
       <use xlink:href="#CMMI12-72" transform="translate(42.363841 -11.650281) scale(0.697382)"/>
       <use xlink:href="#CMMI12-3b" transform="translate(135.36532 0) scale(0.996264)"/>
       <use xlink:href="#CMMI12-1c" transform="translate(195.671308 0) scale(0.996264)"/>
       <use xlink:href="#CMR17-28" transform="translate(249.162473 51.691943) scale(0.697382)"/>
       <use xlink:href="#CMR17-32" transform="translate(273.858893 51.691943) scale(0.697382)"/>
       <use xlink:href="#CMR17-29" transform="translate(305.842075 51.691943) scale(0.697382)"/>
       <use xlink:href="#CMMI12-72" transform="translate(238.035148 -11.650281) scale(0.697382)"/>
      </g>
     </g>
    </g>
   </g>
   <g id="matplotlib.axis_2">
    <g id="text_2">
     <!-- Counts -->
     <g style="fill: #262626" transform="translate(46.071248 61.749166) rotate(-90) scale(0.1 -0.1)">
      <defs>
       <path id="CMSS17-43" d="M 3501 714 
C 3072 427 2874 344 2355 344 
C 1459 344 934 1303 934 2179 
C 934 3112 1472 4032 2381 4032 
C 2790 4032 3059 3918 3386 3715 
L 3475 4217 
C 3168 4370 2778 4440 2387 4440 
C 1158 4440 397 3316 397 2179 
C 397 927 1299 -64 2323 -64 
C 2874 -64 3066 -19 3539 280 
L 3501 714 
z
" transform="scale(0.015625)"/>
       <path id="CMSS17-6f" d="M 2829 1356 
C 2829 2176 2221 2816 1504 2816 
C 768 2816 173 2157 173 1356 
C 173 544 787 -64 1498 -64 
C 2227 -64 2829 563 2829 1356 
z
M 1504 337 
C 1050 337 659 709 659 1408 
C 659 2151 1114 2427 1498 2427 
C 1914 2427 2342 2126 2342 1408 
C 2342 683 1926 337 1504 337 
z
" transform="scale(0.015625)"/>
       <path id="CMSS17-75" d="M 2618 2739 
L 2131 2739 
L 2131 972 
C 2131 498 1786 306 1421 306 
C 998 306 960 447 960 709 
L 960 2739 
L 474 2739 
L 474 678 
C 474 179 646 -64 1088 -64 
C 1306 -64 1798 -13 2144 306 
L 2144 0 
L 2618 0 
L 2618 2739 
z
" transform="scale(0.015625)"/>
       <path id="CMSS17-6e" d="M 2618 1877 
C 2618 2283 2522 2816 1798 2816 
C 1389 2816 1120 2606 941 2389 
L 941 2758 
L 474 2758 
L 474 0 
L 960 0 
L 960 1559 
C 960 1964 1114 2428 1549 2428 
C 2112 2428 2131 2048 2131 1829 
L 2131 0 
L 2618 0 
L 2618 1877 
z
" transform="scale(0.015625)"/>
       <path id="CMSS17-74" d="M 1069 2368 
L 1901 2368 
L 1901 2737 
L 1069 2737 
L 1069 3520 
L 614 3520 
L 614 2737 
L 109 2737 
L 109 2368 
L 602 2368 
L 602 749 
C 602 384 685 -64 1107 -64 
C 1427 -64 1722 25 2003 172 
L 1901 548 
C 1747 414 1562 337 1363 337 
C 1082 337 1069 696 1069 856 
L 1069 2368 
z
" transform="scale(0.015625)"/>
       <path id="CMSS17-73" d="M 2061 2627 
C 1683 2807 1389 2807 1197 2807 
C 742 2807 198 2648 198 2003 
C 198 1359 902 1218 1094 1179 
C 1389 1122 1715 1058 1715 740 
C 1715 337 1254 337 1171 337 
C 915 337 563 407 243 638 
L 166 210 
C 531 0 883 -64 1178 -64 
C 1965 -64 2163 416 2163 781 
C 2163 1094 1984 1305 1862 1401 
C 1651 1568 1574 1587 1050 1696 
C 960 1709 646 1779 646 2066 
C 646 2432 1050 2432 1139 2432 
C 1555 2432 1811 2303 1984 2208 
L 2061 2627 
z
" transform="scale(0.015625)"/>
      </defs>
      <use xlink:href="#CMSS17-43" transform="scale(0.996264)"/>
      <use xlink:href="#CMSS17-6f" transform="translate(59.855772 0) scale(0.996264)"/>
      <use xlink:href="#CMSS17-75" transform="translate(106.699395 0) scale(0.996264)"/>
      <use xlink:href="#CMSS17-6e" transform="translate(154.904338 0) scale(0.996264)"/>
      <use xlink:href="#CMSS17-74" transform="translate(203.109281 0) scale(0.996264)"/>
      <use xlink:href="#CMSS17-73" transform="translate(236.940848 0) scale(0.996264)"/>
     </g>
    </g>
   </g>
   <g id="patch_3">
    <path d="M 58.442795 16.074573 
L 59.975729 20.856461 
L 58.486701 19.421894 
L 58.486701 76.84672 
L 58.39889 76.84672 
L 58.39889 19.421894 
L 56.909861 20.856461 
z
" style="fill: #1a1a1a; stroke: #1a1a1a; stroke-linejoin: miter"/>
   </g>
   <g id="patch_4">
    <path d="M 154.938565 76.84672 
L 150.113776 78.366024 
L 151.561213 76.926976 
L 58.442795 76.926976 
L 58.442795 76.766465 
L 151.561213 76.766465 
L 150.113776 75.327417 
z
" style="fill: #1a1a1a; stroke: #1a1a1a; stroke-linejoin: miter"/>
   </g>
   <g id="LineCollection_1">
    <path d="M 95.231314 74.08435 
L 95.231314 18.836943 
" clip-path="url(#pa3beb0959f)" style="fill: none; stroke-dasharray: 5.55,2.4; stroke-dashoffset: 0; stroke: #4c72b0; stroke-width: 1.5"/>
   </g>
   <g id="LineCollection_2">
    <path d="M 96.197237 74.08435 
L 96.197237 18.836943 
" clip-path="url(#pa3beb0959f)" style="fill: none; stroke-dasharray: 5.55,2.4; stroke-dashoffset: 0; stroke: #dd8452; stroke-width: 1.5"/>
   </g>
   <g id="line2d_2">
    <path d="M 62.828967 18.83941 
L 73.102882 18.956341 
L 77.317821 19.11136 
L 79.688724 18.929722 
L 81.53276 18.849676 
L 82.586495 19.046099 
L 83.376796 19.422328 
L 84.167098 20.074249 
L 84.957399 21.071762 
L 85.7477 22.474971 
L 86.538001 24.325722 
L 87.591736 27.511384 
L 88.645471 31.457566 
L 90.226073 38.372782 
L 92.333543 47.609218 
L 93.387278 51.236255 
L 94.177579 53.161783 
L 94.704446 53.983477 
L 95.231314 54.397632 
L 95.758181 54.383957 
L 96.285048 53.934351 
L 96.811916 53.053611 
L 97.338783 51.759638 
L 98.129084 49.114294 
L 99.182819 44.523511 
L 101.026855 35.005943 
L 102.607458 27.314474 
L 103.661192 23.306077 
L 104.451494 21.11177 
L 105.241795 19.667743 
L 105.768662 19.11304 
L 106.29553 18.860498 
L 106.822397 18.877215 
L 107.349264 19.121552 
L 108.139566 19.808409 
L 111.30077 23.15718 
L 112.091071 23.462536 
L 112.617939 23.475021 
L 113.40824 23.216151 
L 114.198541 22.671464 
L 115.51571 21.370443 
L 117.096312 19.787015 
L 117.886613 19.22325 
L 118.676914 18.902403 
L 119.467215 18.848853 
L 120.257516 19.049042 
L 121.311251 19.623963 
L 124.209022 21.511972 
L 124.999323 21.731008 
L 125.789624 21.734641 
L 126.579926 21.525813 
L 127.63366 20.978899 
L 130.794865 19.043636 
L 131.585166 18.85678 
L 132.375467 18.867576 
L 133.165768 19.06861 
L 134.219503 19.568925 
L 137.117274 21.128474 
L 137.907575 21.29734 
L 138.697876 21.283193 
L 139.751611 20.988811 
L 141.06878 20.301678 
L 143.17625 19.150748 
L 144.229984 18.871688 
L 145.020285 18.868367 
L 145.810587 19.044491 
L 146.864321 19.509858 
L 150.025526 21.156969 
L 150.552393 21.270757 
L 150.552393 21.270757 
" clip-path="url(#pa3beb0959f)" style="fill: none; stroke: #4c72b0; stroke-width: 1.5; stroke-linecap: round"/>
   </g>
   <g id="line2d_3">
    <path d="M 62.828967 18.865315 
L 76.000652 18.871139 
L 83.376796 19.042104 
L 84.430531 19.411097 
L 85.220832 19.882187 
L 86.011134 20.564115 
L 86.801435 21.489415 
L 87.85517 23.133842 
L 88.908904 25.240955 
L 90.226073 28.403392 
L 93.123844 35.686647 
L 94.177579 37.627213 
L 94.96788 38.573846 
L 95.494747 38.9154 
L 96.021615 39.005572 
L 96.548482 38.83564 
L 97.07535 38.404909 
L 97.602217 37.721025 
L 98.392518 36.257624 
L 99.446253 33.633563 
L 101.026855 28.879417 
L 102.607458 24.217392 
L 103.661192 21.711995 
L 104.451494 20.315086 
L 105.241795 19.38259 
L 105.768662 19.019975 
L 106.29553 18.852984 
L 106.822397 18.863056 
L 107.612698 19.154026 
L 108.666433 19.890564 
L 110.773903 21.53573 
L 111.564204 21.911415 
L 112.354505 22.061972 
L 113.144806 21.974674 
L 113.935107 21.670486 
L 114.988842 21.016305 
L 117.623179 19.230901 
L 118.676914 18.884387 
L 119.467215 18.845349 
L 120.257516 18.989605 
L 121.311251 19.407224 
L 124.472456 20.870144 
L 125.526191 20.987622 
L 126.579926 20.823112 
L 127.63366 20.423955 
L 130.794865 18.991841 
L 131.8486 18.837945 
L 132.902335 18.944612 
L 133.95607 19.275479 
L 137.380708 20.613313 
L 138.434443 20.694232 
L 139.488178 20.531805 
L 140.805346 20.059193 
L 143.439683 19.008991 
L 144.493418 18.856225 
L 145.547153 18.943645 
L 146.600888 19.247763 
L 150.552393 20.654706 
L 150.552393 20.654706 
" clip-path="url(#pa3beb0959f)" style="fill: none; stroke: #dd8452; stroke-width: 1.5; stroke-linecap: round"/>
   </g>
   <g id="line2d_4">
    <path d="M 62.828967 18.867782 
L 72.31258 18.915478 
L 78.108122 19.119372 
L 81.796194 18.885146 
L 82.586495 19.115262 
L 83.376796 19.627413 
L 84.167098 20.531122 
L 84.957399 21.93718 
L 85.7477 23.945786 
L 86.538001 26.633092 
L 87.328302 30.037536 
L 88.382037 35.66404 
L 89.699206 44.138936 
L 92.86041 65.504589 
L 93.650711 69.491547 
L 94.441012 72.358403 
L 94.96788 73.53587 
L 95.494747 74.069198 
L 95.758181 74.08435 
L 96.021615 73.928872 
L 96.548482 73.10464 
L 97.07535 71.606561 
L 97.602217 69.465313 
L 98.392518 65.163779 
L 99.446253 57.802824 
L 103.397759 27.624765 
L 104.18806 23.650449 
L 104.978361 20.86926 
L 105.505228 19.689862 
L 106.032096 19.026899 
L 106.558963 18.837994 
L 107.085831 19.063754 
L 107.612698 19.631211 
L 108.402999 20.94096 
L 110.773903 25.467297 
L 111.564204 26.36212 
L 112.091071 26.654491 
L 112.617939 26.687508 
L 113.144806 26.466253 
L 113.671674 26.011299 
L 114.461975 24.968335 
L 115.779143 22.680631 
L 117.096312 20.46539 
L 117.886613 19.500649 
L 118.41348 19.083363 
L 118.940348 18.867788 
L 119.467215 18.85726 
L 119.994083 19.042205 
L 120.784384 19.636228 
L 121.838119 20.832168 
L 123.682155 23.029491 
L 124.472456 23.637381 
L 125.262757 23.900719 
L 125.789624 23.866046 
L 126.316492 23.666225 
L 127.106793 23.091663 
L 128.160528 21.960065 
L 130.004564 19.831371 
L 130.794865 19.198514 
L 131.585166 18.871878 
L 132.112034 18.845407 
L 132.902335 19.089755 
L 133.692636 19.631087 
L 134.746371 20.658566 
L 136.590407 22.488444 
L 137.380708 22.97784 
L 138.171009 23.17068 
L 138.96131 23.039943 
L 139.751611 22.60672 
L 140.805346 21.677401 
L 143.17625 19.395156 
L 143.966551 18.980059 
L 144.756852 18.867444 
L 145.547153 19.073633 
L 146.337454 19.56764 
L 147.391189 20.541809 
L 149.235225 22.36507 
L 150.025526 22.889531 
L 150.552393 23.085708 
L 150.552393 23.085708 
" clip-path="url(#pa3beb0959f)" style="fill: none; stroke: #000000; stroke-width: 1.5; stroke-linecap: round"/>
   </g>
  </g>
 </g>
 <defs>
  <clipPath id="pa3beb0959f">
   <rect x="52.008426" y="12.96" width="107.831574" height="68.520597"/>
  </clipPath>
 </defs>
</svg>
