<?xml version="1.0" encoding="utf-8" standalone="no"?>
<!DOCTYPE svg PUBLIC "-//W3C//DTD SVG 1.1//EN"
  "http://www.w3.org/Graphics/SVG/1.1/DTD/svg11.dtd">
<svg xmlns:xlink="http://www.w3.org/1999/xlink" width="172.8pt" height="106.796273pt" viewBox="0 0 172.8 106.796273" xmlns="http://www.w3.org/2000/svg" version="1.1">
 <metadata>
  <rdf:RDF xmlns:dc="http://purl.org/dc/elements/1.1/" xmlns:cc="http://creativecommons.org/ns#" xmlns:rdf="http://www.w3.org/1999/02/22-rdf-syntax-ns#">
   <cc:Work>
    <dc:type rdf:resource="http://purl.org/dc/dcmitype/StillImage"/>
    <dc:date>2023-08-24T11:11:07.715306</dc:date>
    <dc:format>image/svg+xml</dc:format>
    <dc:creator>
     <cc:Agent>
      <dc:title>Matplotlib v3.7.1, https://matplotlib.org/</dc:title>
     </cc:Agent>
    </dc:creator>
   </cc:Work>
  </rdf:RDF>
 </metadata>
 <defs>
  <style type="text/css">*{stroke-linejoin: round; stroke-linecap: butt}</style>
 </defs>
 <g id="figure_1">
  <g id="patch_1">
   <path d="M 0 106.796273 
L 172.8 106.796273 
L 172.8 0 
L 0 0 
z
" style="fill: #ffffff"/>
  </g>
  <g id="axes_1">
   <g id="patch_2">
    <path d="M 34.297012 81.480597 
L 159.84 81.480597 
L 159.84 12.96 
L 34.297012 12.96 
z
" style="fill: #ffffff"/>
   </g>
   <g id="matplotlib.axis_1">
    <g id="xtick_1">
     <g id="line2d_1">
      <defs>
       <path id="m57e5266e7f" d="M 0 0 
L 0 -6 
" style="stroke: #262626; stroke-width: 1.25"/>
      </defs>
      <g>
       <use xlink:href="#m57e5266e7f" x="46.047836" y="81.480597" style="fill: #262626; stroke: #262626; stroke-width: 1.25"/>
      </g>
     </g>
     <g id="text_1">
      <!-- $\omega_1^{S}$ -->
      <g style="fill: #262626" transform="translate(40.322426 93.36143) scale(0.1 -0.1)">
       <defs>
        <path id="CMMI12-21" d="M 3802 2395 
C 3802 2580 3750 2816 3526 2816 
C 3398 2816 3251 2657 3251 2529 
C 3251 2472 3277 2434 3328 2376 
C 3424 2268 3546 2096 3546 1797 
C 3546 1567 3405 1204 3302 1007 
C 3123 656 2829 357 2496 357 
C 2093 357 1939 615 1869 975 
C 1939 1143 2086 1560 2086 1728 
C 2086 1798 2061 1856 1978 1856 
C 1933 1856 1882 1831 1850 1779 
C 1760 1638 1677 1129 1683 994 
C 1562 756 1216 357 806 357 
C 378 357 262 733 262 1096 
C 262 1758 678 2338 794 2497 
C 858 2593 902 2657 902 2669 
C 902 2714 877 2784 819 2784 
C 717 2784 685 2701 634 2625 
C 307 2121 77 1414 77 803 
C 77 408 224 -64 704 -64 
C 1235 -64 1568 391 1702 634 
C 1754 275 1946 -64 2413 -64 
C 2899 -64 3206 363 3437 879 
C 3603 1249 3802 2045 3802 2395 
z
" transform="scale(0.015625)"/>
        <path id="CMMI12-53" d="M 4064 4423 
C 4064 4480 4019 4480 4006 4480 
C 3981 4480 3974 4474 3898 4378 
C 3859 4333 3597 4001 3590 3995 
C 3379 4410 2957 4480 2688 4480 
C 1875 4480 1139 3743 1139 3025 
C 1139 2549 1427 2269 1741 2161 
C 1811 2135 2189 2033 2381 1989 
C 2707 1900 2790 1875 2925 1735 
C 2950 1703 3078 1557 3078 1258 
C 3078 667 2528 57 1888 57 
C 1363 57 781 280 781 991 
C 781 1112 806 1265 826 1328 
C 826 1348 832 1378 832 1391 
C 832 1417 819 1449 768 1449 
C 710 1449 704 1436 678 1328 
L 352 24 
C 352 18 326 -64 326 -71 
C 326 -128 378 -128 390 -128 
C 416 -128 422 -122 499 -26 
L 794 356 
C 947 126 1280 -128 1875 -128 
C 2701 -128 3456 666 3456 1460 
C 3456 1728 3392 1963 3149 2197 
C 3014 2331 2899 2363 2310 2516 
C 1882 2630 1824 2649 1709 2751 
C 1600 2858 1517 3011 1517 3227 
C 1517 3761 2061 4308 2669 4308 
C 3296 4308 3590 3926 3590 3323 
C 3590 3158 3558 2986 3558 2961 
C 3558 2903 3610 2903 3629 2903 
C 3686 2903 3693 2922 3718 3024 
L 4064 4423 
z
" transform="scale(0.015625)"/>
        <path id="CMR17-31" d="M 1702 4058 
C 1702 4192 1696 4192 1606 4192 
C 1357 3916 979 3827 621 3827 
C 602 3827 570 3827 563 3808 
C 557 3795 557 3782 557 3648 
C 755 3648 1088 3686 1344 3839 
L 1344 461 
C 1344 236 1331 160 781 160 
L 589 160 
L 589 0 
C 896 0 1216 0 1523 0 
C 1830 0 2150 0 2458 0 
L 2458 160 
L 2266 160 
C 1715 160 1702 230 1702 458 
L 1702 4058 
z
" transform="scale(0.015625)"/>
       </defs>
       <use xlink:href="#CMMI12-21" transform="scale(0.996264)"/>
       <use xlink:href="#CMMI12-53" transform="translate(64.318346 36.153639) scale(0.697382)"/>
       <use xlink:href="#CMR17-31" transform="translate(60.743753 -24.740171) scale(0.697382)"/>
      </g>
     </g>
    </g>
    <g id="xtick_2">
     <g id="line2d_2">
      <g>
       <use xlink:href="#m57e5266e7f" x="56.191709" y="81.480597" style="fill: #262626; stroke: #262626; stroke-width: 1.25"/>
      </g>
     </g>
     <g id="text_2">
      <!-- $\omega_L^{S}$ -->
      <g style="fill: #262626" transform="translate(50.358246 93.36143) scale(0.1 -0.1)">
       <defs>
        <path id="CMMI12-4c" d="M 2349 3861 
C 2406 4103 2426 4167 2989 4167 
C 3162 4167 3206 4167 3206 4288 
C 3206 4352 3136 4352 3110 4352 
C 2982 4352 2835 4352 2707 4352 
L 1850 4352 
C 1728 4352 1587 4352 1466 4352 
C 1414 4352 1344 4352 1344 4231 
C 1344 4167 1402 4167 1498 4167 
C 1888 4167 1888 4116 1888 4046 
C 1888 4034 1888 3995 1862 3899 
L 998 472 
C 941 249 928 185 480 185 
C 358 185 294 185 294 70 
C 294 0 333 0 461 0 
L 3328 0 
C 3469 0 3475 6 3520 121 
L 4013 1478 
C 4026 1510 4038 1548 4038 1567 
C 4038 1605 4006 1631 3974 1631 
C 3968 1631 3936 1631 3923 1605 
C 3910 1599 3910 1586 3859 1465 
C 3654 905 3366 185 2285 185 
L 1670 185 
C 1581 185 1568 185 1530 192 
C 1459 198 1453 211 1453 262 
C 1453 307 1466 345 1478 401 
L 2349 3861 
z
" transform="scale(0.015625)"/>
       </defs>
       <use xlink:href="#CMMI12-21" transform="scale(0.996264)"/>
       <use xlink:href="#CMMI12-53" transform="translate(64.318346 36.153639) scale(0.697382)"/>
       <use xlink:href="#CMMI12-4c" transform="translate(60.743753 -27.44057) scale(0.697382)"/>
      </g>
     </g>
    </g>
    <g id="xtick_3">
     <g id="line2d_3">
      <g>
       <use xlink:href="#m57e5266e7f" x="65.732976" y="81.480597" style="fill: #262626; stroke: #262626; stroke-width: 1.25"/>
      </g>
     </g>
     <g id="text_3">
      <!-- $\omega_0^{S}$ -->
      <g style="fill: #262626" transform="translate(60.007567 93.36143) scale(0.1 -0.1)">
       <defs>
        <path id="CMR17-30" d="M 2688 2025 
C 2688 2416 2682 3080 2413 3591 
C 2176 4039 1798 4198 1466 4198 
C 1158 4198 768 4058 525 3597 
C 269 3118 243 2524 243 2025 
C 243 1661 250 1106 448 619 
C 723 -39 1216 -128 1466 -128 
C 1760 -128 2208 -7 2470 600 
C 2662 1042 2688 1559 2688 2025 
z
M 1466 -26 
C 1056 -26 813 325 723 812 
C 653 1188 653 1738 653 2096 
C 653 2588 653 2997 736 3387 
C 858 3929 1216 4096 1466 4096 
C 1728 4096 2067 3923 2189 3400 
C 2272 3036 2278 2607 2278 2096 
C 2278 1680 2278 1169 2202 792 
C 2067 95 1690 -26 1466 -26 
z
" transform="scale(0.015625)"/>
       </defs>
       <use xlink:href="#CMMI12-21" transform="scale(0.996264)"/>
       <use xlink:href="#CMMI12-53" transform="translate(64.318346 36.153639) scale(0.697382)"/>
       <use xlink:href="#CMR17-30" transform="translate(60.743753 -24.740171) scale(0.697382)"/>
      </g>
     </g>
    </g>
    <g id="xtick_4">
     <g id="line2d_4">
      <g>
       <use xlink:href="#m57e5266e7f" x="120.771022" y="81.480597" style="fill: #262626; stroke: #262626; stroke-width: 1.25"/>
      </g>
     </g>
     <g id="text_4">
      <!-- $\omega_0^{C}$ -->
      <g style="fill: #262626" transform="translate(114.634519 93.36143) scale(0.1 -0.1)">
       <defs>
        <path id="CMMI12-43" d="M 4781 4423 
C 4781 4480 4736 4480 4723 4480 
C 4710 4480 4685 4480 4634 4416 
L 4192 3882 
C 3968 4264 3616 4480 3136 4480 
C 1754 4480 320 3088 320 1595 
C 320 533 1069 -128 2003 -128 
C 2515 -128 2963 88 3334 400 
C 3891 863 4058 1481 4058 1531 
C 4058 1588 4006 1588 3987 1588 
C 3930 1588 3923 1550 3910 1524 
C 3616 534 2752 57 2112 57 
C 1434 57 845 489 845 1391 
C 845 1595 909 2700 1632 3532 
C 1984 3939 2586 4295 3194 4295 
C 3898 4295 4211 3717 4211 3068 
C 4211 2903 4192 2764 4192 2738 
C 4192 2681 4256 2681 4275 2681 
C 4346 2681 4352 2687 4378 2801 
L 4781 4423 
z
" transform="scale(0.015625)"/>
       </defs>
       <use xlink:href="#CMMI12-21" transform="scale(0.996264)"/>
       <use xlink:href="#CMMI12-43" transform="translate(64.318346 36.153639) scale(0.697382)"/>
       <use xlink:href="#CMR17-30" transform="translate(60.743753 -24.740171) scale(0.697382)"/>
      </g>
     </g>
    </g>
    <g id="xtick_5">
     <g id="line2d_5">
      <g>
       <use xlink:href="#m57e5266e7f" x="135.434443" y="81.480597" style="fill: #262626; stroke: #262626; stroke-width: 1.25"/>
      </g>
     </g>
     <g id="text_5">
      <!-- $\omega_L^{C}$ -->
      <g style="fill: #262626" transform="translate(129.29794 93.36143) scale(0.1 -0.1)">
       <use xlink:href="#CMMI12-21" transform="scale(0.996264)"/>
       <use xlink:href="#CMMI12-43" transform="translate(64.318346 36.153639) scale(0.697382)"/>
       <use xlink:href="#CMMI12-4c" transform="translate(60.743753 -27.44057) scale(0.697382)"/>
      </g>
     </g>
    </g>
    <g id="xtick_6">
     <g id="line2d_6">
      <g>
       <use xlink:href="#m57e5266e7f" x="148.993086" y="81.480597" style="fill: #262626; stroke: #262626; stroke-width: 1.25"/>
      </g>
     </g>
     <g id="text_6">
      <!-- $\omega_1^{C}$ -->
      <g style="fill: #262626" transform="translate(142.856582 93.36143) scale(0.1 -0.1)">
       <use xlink:href="#CMMI12-21" transform="scale(0.996264)"/>
       <use xlink:href="#CMMI12-43" transform="translate(64.318346 36.153639) scale(0.697382)"/>
       <use xlink:href="#CMR17-31" transform="translate(60.743753 -24.740171) scale(0.697382)"/>
      </g>
     </g>
    </g>
   </g>
   <g id="matplotlib.axis_2">
    <g id="text_7">
     <!-- Amplitude -->
     <g style="fill: #262626" transform="translate(28.359834 68.612322) rotate(-90) scale(0.1 -0.1)">
      <defs>
       <path id="CMSS17-41" d="M 2272 4416 
L 1722 4416 
L 166 0 
L 653 0 
L 1101 1280 
L 2816 1280 
L 3270 0 
L 3827 0 
L 2272 4416 
z
M 2694 1637 
L 1222 1637 
C 1530 2528 1914 3638 1958 3925 
L 1965 3925 
C 2010 3663 2138 3281 2246 2956 
L 2694 1637 
z
" transform="scale(0.015625)"/>
       <path id="CMSS17-6d" d="M 4288 1877 
C 4288 2308 4179 2816 3462 2816 
C 2982 2816 2694 2516 2566 2331 
C 2451 2670 2182 2816 1798 2816 
C 1363 2816 1088 2568 941 2389 
L 941 2758 
L 474 2758 
L 474 0 
L 960 0 
L 960 1559 
C 960 1939 1101 2428 1555 2428 
C 2138 2428 2138 2016 2138 1829 
L 2138 0 
L 2624 0 
L 2624 1559 
C 2624 1939 2765 2428 3219 2428 
C 3802 2428 3802 2016 3802 1829 
L 3802 0 
L 4288 0 
L 4288 1877 
z
" transform="scale(0.015625)"/>
       <path id="CMSS17-70" d="M 966 333 
C 1178 129 1466 -5 1773 -5 
C 2368 -5 2880 603 2880 1412 
C 2880 2159 2496 2816 1946 2816 
C 1626 2816 1242 2702 954 2472 
L 954 2765 
L 480 2765 
L 480 -1216 
L 966 -1216 
L 966 333 
z
M 966 2100 
C 1018 2176 1235 2415 1587 2415 
C 2035 2415 2394 1960 2394 1412 
C 2394 787 1958 384 1530 384 
C 1402 384 1267 415 1139 523 
C 966 674 966 768 966 857 
L 966 2100 
z
" transform="scale(0.015625)"/>
       <path id="CMSS17-6c" d="M 947 4416 
L 474 4416 
L 474 0 
L 947 0 
L 947 4416 
z
" transform="scale(0.015625)"/>
       <path id="CMSS17-69" d="M 979 4183 
L 442 4183 
L 442 3648 
L 979 3648 
L 979 4183 
z
M 947 2739 
L 474 2739 
L 474 0 
L 947 0 
L 947 2739 
z
" transform="scale(0.015625)"/>
       <path id="CMSS17-74" d="M 1069 2368 
L 1901 2368 
L 1901 2737 
L 1069 2737 
L 1069 3520 
L 614 3520 
L 614 2737 
L 109 2737 
L 109 2368 
L 602 2368 
L 602 749 
C 602 384 685 -64 1107 -64 
C 1427 -64 1722 25 2003 172 
L 1901 548 
C 1747 414 1562 337 1363 337 
C 1082 337 1069 696 1069 856 
L 1069 2368 
z
" transform="scale(0.015625)"/>
       <path id="CMSS17-75" d="M 2618 2739 
L 2131 2739 
L 2131 972 
C 2131 498 1786 306 1421 306 
C 998 306 960 447 960 709 
L 960 2739 
L 474 2739 
L 474 678 
C 474 179 646 -64 1088 -64 
C 1306 -64 1798 -13 2144 306 
L 2144 0 
L 2618 0 
L 2618 2739 
z
" transform="scale(0.015625)"/>
       <path id="CMSS17-64" d="M 2611 4416 
L 2138 4416 
L 2138 2438 
C 1939 2603 1613 2756 1254 2756 
C 672 2756 211 2131 211 1347 
C 211 562 666 -64 1235 -64 
C 1677 -64 1971 172 2125 306 
L 2125 -13 
L 2611 -13 
L 2611 4416 
z
M 2125 836 
C 2125 747 2125 653 1926 482 
C 1798 375 1645 325 1498 325 
C 1152 325 698 576 698 1340 
C 698 2134 1210 2368 1562 2368 
C 1798 2368 1990 2254 2125 2065 
L 2125 836 
z
" transform="scale(0.015625)"/>
       <path id="CMSS17-65" d="M 2502 1377 
C 2502 1590 2490 2003 2285 2345 
C 2061 2713 1696 2816 1421 2816 
C 755 2816 192 2188 192 1375 
C 192 582 774 -64 1510 -64 
C 1798 -64 2150 19 2470 248 
C 2470 274 2458 414 2451 420 
C 2451 433 2432 630 2432 656 
C 2125 407 1773 325 1517 325 
C 1107 325 666 667 646 1377 
L 2502 1377 
z
M 698 1728 
C 781 2084 1062 2421 1421 2421 
C 1517 2421 1965 2421 2080 1728 
L 698 1728 
z
" transform="scale(0.015625)"/>
      </defs>
      <use xlink:href="#CMSS17-41" transform="scale(0.996264)"/>
      <use xlink:href="#CMSS17-6d" transform="translate(62.217855 0) scale(0.996264)"/>
      <use xlink:href="#CMSS17-70" transform="translate(136.447109 0) scale(0.996264)"/>
      <use xlink:href="#CMSS17-6c" transform="translate(184.652052 0) scale(0.996264)"/>
      <use xlink:href="#CMSS17-69" transform="translate(206.832776 0) scale(0.996264)"/>
      <use xlink:href="#CMSS17-74" transform="translate(229.013499 0) scale(0.996264)"/>
      <use xlink:href="#CMSS17-75" transform="translate(262.845065 0) scale(0.996264)"/>
      <use xlink:href="#CMSS17-64" transform="translate(311.050008 0) scale(0.996264)"/>
      <use xlink:href="#CMSS17-65" transform="translate(359.254952 0) scale(0.996264)"/>
     </g>
    </g>
   </g>
   <g id="patch_3">
    <path d="M 34.297012 16.074573 
L 36.010027 21.641889 
L 34.297112 19.971694 
L 34.297112 76.84672 
L 34.296912 76.84672 
L 34.296912 19.971694 
L 32.583997 21.641889 
z
" style="fill: #1a1a1a; stroke: #1a1a1a; stroke-linejoin: miter"/>
   </g>
   <g id="patch_4">
    <path d="M 159.84 76.84672 
L 153.562851 78.366024 
L 155.445995 76.848708 
L 34.297012 76.848708 
L 34.297012 76.844733 
L 155.445995 76.844733 
L 153.562851 75.327417 
z
" style="fill: #1a1a1a; stroke: #1a1a1a; stroke-linejoin: miter"/>
   </g>
   <g id="line2d_7">
    <path d="M 34.171469 74.03353 
L 103.345655 73.886891 
L 113.389094 73.684009 
L 116.653212 73.429728 
L 118.159728 73.120304 
L 119.038529 72.722955 
L 119.540701 72.282483 
L 119.91733 71.685244 
L 120.168416 70.987727 
L 120.419502 69.68936 
L 120.670588 66.424033 
L 120.796131 61.803458 
L 121.047217 18.836943 
L 121.298303 65.71214 
L 121.549389 69.59406 
L 121.926018 71.462569 
L 122.302647 72.249749 
L 122.804819 72.788551 
L 123.558076 73.201115 
L 124.687963 73.505963 
L 126.571108 73.743319 
L 130.211855 73.935857 
L 135.610203 74.003706 
L 141.510724 73.82134 
L 144.523755 73.549243 
L 146.030271 73.205264 
L 146.783529 72.848187 
L 147.285701 72.420419 
L 147.66233 71.86305 
L 148.038959 70.788964 
L 148.290045 69.270735 
L 148.541131 65.283589 
L 148.666674 59.190345 
L 148.792217 26.523513 
L 148.91776 33.645881 
L 149.168846 65.403542 
L 149.419932 69.190303 
L 149.796561 71.10514 
L 150.17319 71.930627 
L 150.675362 72.502031 
L 151.303077 72.888002 
L 152.307421 73.215095 
L 153.93948 73.472975 
L 156.952511 73.679058 
L 159.965543 73.775669 
L 159.965543 73.775669 
" clip-path="url(#pa04c49249d)" style="fill: none; stroke: #4c72b0; stroke-width: 1.5; stroke-linecap: round"/>
   </g>
   <g id="line2d_8">
    <path d="M 34.171469 73.890065 
L 40.699704 73.686312 
L 42.959478 73.420797 
L 43.963822 73.119725 
L 44.591537 72.721374 
L 44.968166 72.260145 
L 45.219252 71.719457 
L 45.470338 70.707347 
L 45.721424 68.129331 
L 45.846967 64.399905 
L 46.098053 37.400713 
L 46.349139 67.812228 
L 46.600225 70.67551 
L 46.976854 72.075057 
L 47.353483 72.668794 
L 47.855655 73.076503 
L 48.608913 73.389248 
L 49.864342 73.637664 
L 52.249659 73.83541 
L 56.89475 73.963039 
L 61.163211 73.890855 
L 63.297442 73.668513 
L 64.176243 73.401908 
L 64.678415 73.059272 
L 65.055044 72.492234 
L 65.30613 71.616224 
L 65.431673 70.707799 
L 65.557216 68.785764 
L 65.682759 62.010974 
L 65.808302 27.775569 
L 65.933845 66.057925 
L 66.184931 71.021394 
L 66.436017 72.17299 
L 66.812646 72.848549 
L 67.314818 73.233368 
L 68.068076 73.494388 
L 69.449049 73.695959 
L 72.336537 73.846305 
L 79.743574 73.954943 
L 104.852171 74.029332 
L 159.965543 74.060382 
L 159.965543 74.060382 
" clip-path="url(#pa04c49249d)" style="fill: none; stroke: #dd8452; stroke-width: 1.5; stroke-linecap: round"/>
   </g>
   <g id="line2d_9">
    <path d="M 34.171469 73.941726 
L 40.699704 73.743754 
L 42.959478 73.481895 
L 43.963822 73.183898 
L 44.591537 72.78912 
L 44.968166 72.331778 
L 45.219252 71.795511 
L 45.470338 70.791519 
L 45.721424 68.233902 
L 45.846967 64.533816 
L 46.098053 37.630298 
L 46.349139 67.803115 
L 46.600225 70.643763 
L 46.976854 72.032069 
L 47.353483 72.620888 
L 47.855655 73.025058 
L 48.608913 73.334857 
L 49.864342 73.580586 
L 52.249659 73.776029 
L 57.271379 73.919131 
L 61.790926 73.871607 
L 63.548528 73.655832 
L 64.301786 73.38826 
L 64.803958 72.975646 
L 65.055044 72.554025 
L 65.30613 71.686328 
L 65.431673 70.785717 
L 65.557216 68.879426 
L 65.682759 62.158422 
L 65.808302 28.085391 
L 65.933845 66.066879 
L 66.184931 70.990237 
L 66.436017 72.131676 
L 66.812646 72.800351 
L 67.314818 73.180198 
L 68.068076 73.436521 
L 69.449049 73.632291 
L 72.336537 73.774132 
L 79.869117 73.865953 
L 100.207081 73.854379 
L 112.384751 73.680473 
L 116.276583 73.436259 
L 118.034185 73.119636 
L 118.912986 72.763249 
L 119.415158 72.383154 
L 119.791787 71.891598 
L 120.168416 70.956504 
L 120.419502 69.661779 
L 120.670588 66.405403 
L 120.796131 61.797371 
L 121.047217 19.025225 
L 121.298303 65.773731 
L 121.549389 69.645041 
L 121.926018 71.508318 
L 122.302647 72.293188 
L 122.804819 72.830296 
L 123.558076 73.241402 
L 124.687963 73.544938 
L 126.571108 73.780889 
L 130.211855 73.970617 
L 134.982488 74.009186 
L 141.76181 73.786066 
L 144.649298 73.508948 
L 146.030271 73.185205 
L 146.783529 72.829112 
L 147.285701 72.402524 
L 147.66233 71.846685 
L 148.038959 70.775529 
L 148.290045 69.26142 
L 148.541131 65.285062 
L 148.666674 59.208283 
L 148.792217 26.629662 
L 148.91776 33.777316 
L 149.168846 65.449205 
L 149.419932 69.225715 
L 149.796561 71.135337 
L 150.17319 71.958548 
L 150.675362 72.528344 
L 151.303077 72.913185 
L 152.307421 73.239247 
L 153.93948 73.496171 
L 156.952511 73.701185 
L 159.965543 73.797002 
L 159.965543 73.797002 
" clip-path="url(#pa04c49249d)" style="fill: none; stroke: #000000; stroke-opacity: 0.45; stroke-width: 3; stroke-linecap: round"/>
   </g>
   <g id="line2d_10">
    <path d="M 135.434443 81.480597 
L 135.434443 12.96 
" clip-path="url(#pa04c49249d)" style="fill: none; stroke-dasharray: 5.55,2.4; stroke-dashoffset: 0; stroke: #4c72b0; stroke-width: 1.5"/>
   </g>
   <g id="line2d_11">
    <path d="M 56.191709 81.480597 
L 56.191709 12.96 
" clip-path="url(#pa04c49249d)" style="fill: none; stroke-dasharray: 5.55,2.4; stroke-dashoffset: 0; stroke: #dd8452; stroke-width: 1.5"/>
   </g>
   <g id="legend_1">
    <g id="patch_5">
     <path d="M 75.613341 52.809237 
L 118.523671 52.809237 
Q 120.123671 52.809237 120.123671 51.209237 
L 120.123671 18.56 
Q 120.123671 16.96 118.523671 16.96 
L 75.613341 16.96 
Q 74.013341 16.96 74.013341 18.56 
L 74.013341 51.209237 
Q 74.013341 52.809237 75.613341 52.809237 
z
" style="fill: #ffffff; opacity: 0.8; stroke: #cccccc; stroke-linejoin: miter"/>
    </g>
    <g id="line2d_12">
     <path d="M 77.213341 22.96 
L 85.213341 22.96 
L 93.213341 22.96 
" style="fill: none; stroke: #4c72b0; stroke-width: 1.5; stroke-linecap: round"/>
    </g>
    <g id="text_8">
     <!-- $^{13}C$ -->
     <g style="fill: #262626" transform="translate(99.613341 25.76) scale(0.08 -0.08)">
      <defs>
       <path id="CMR17-33" d="M 1414 2157 
C 1984 2157 2234 1662 2234 1090 
C 2234 320 1824 25 1453 25 
C 1114 25 563 194 390 693 
C 422 680 454 680 486 680 
C 640 680 755 782 755 948 
C 755 1133 614 1216 486 1216 
C 378 1216 211 1165 211 926 
C 211 335 787 -128 1466 -128 
C 2176 -128 2720 430 2720 1085 
C 2720 1707 2208 2157 1600 2227 
C 2086 2328 2554 2756 2554 3329 
C 2554 3820 2048 4179 1472 4179 
C 890 4179 378 3829 378 3329 
C 378 3110 544 3072 627 3072 
C 762 3072 877 3155 877 3321 
C 877 3486 762 3569 627 3569 
C 602 3569 570 3569 544 3557 
C 730 3959 1235 4032 1459 4032 
C 1683 4032 2106 3925 2106 3320 
C 2106 3143 2080 2828 1862 2550 
C 1670 2304 1453 2304 1242 2284 
C 1210 2284 1062 2269 1037 2269 
C 992 2263 966 2257 966 2208 
C 966 2163 973 2157 1101 2157 
L 1414 2157 
z
" transform="scale(0.015625)"/>
      </defs>
      <use xlink:href="#CMR17-31" transform="translate(0 36.153639) scale(0.697382)"/>
      <use xlink:href="#CMR17-33" transform="translate(31.983182 36.153639) scale(0.697382)"/>
      <use xlink:href="#CMMI12-43" transform="translate(64.464496 0) scale(0.996264)"/>
     </g>
    </g>
    <g id="line2d_13">
     <path d="M 77.213341 34.109746 
L 85.213341 34.109746 
L 93.213341 34.109746 
" style="fill: none; stroke: #dd8452; stroke-width: 1.5; stroke-linecap: round"/>
    </g>
    <g id="text_9">
     <!-- $^{28}Si$ -->
     <g style="fill: #262626" transform="translate(99.613341 36.909746) scale(0.08 -0.08)">
      <defs>
       <path id="CMR17-32" d="M 2669 989 
L 2554 989 
C 2490 536 2438 459 2413 420 
C 2381 369 1920 369 1830 369 
L 602 369 
C 832 619 1280 1072 1824 1597 
C 2214 1967 2669 2402 2669 3035 
C 2669 3790 2067 4224 1395 4224 
C 691 4224 262 3604 262 3030 
C 262 2780 448 2748 525 2748 
C 589 2748 781 2787 781 3010 
C 781 3207 614 3264 525 3264 
C 486 3264 448 3258 422 3245 
C 544 3790 915 4058 1306 4058 
C 1862 4058 2227 3617 2227 3035 
C 2227 2479 1901 2000 1536 1584 
L 262 146 
L 262 0 
L 2515 0 
L 2669 989 
z
" transform="scale(0.015625)"/>
       <path id="CMR17-38" d="M 1741 2264 
C 2144 2467 2554 2773 2554 3263 
C 2554 3841 1990 4179 1472 4179 
C 890 4179 378 3759 378 3180 
C 378 3021 416 2747 666 2505 
C 730 2442 998 2251 1171 2130 
C 883 1983 211 1634 211 934 
C 211 279 838 -128 1459 -128 
C 2144 -128 2720 362 2720 1010 
C 2720 1590 2330 1857 2074 2029 
L 1741 2264 
z
M 902 2822 
C 851 2854 595 3051 595 3351 
C 595 3739 998 4032 1459 4032 
C 1965 4032 2336 3676 2336 3262 
C 2336 2669 1670 2331 1638 2331 
C 1632 2331 1626 2331 1574 2370 
L 902 2822 
z
M 2080 1519 
C 2176 1449 2483 1240 2483 851 
C 2483 381 2010 25 1472 25 
C 890 25 448 438 448 940 
C 448 1443 838 1862 1280 2060 
L 2080 1519 
z
" transform="scale(0.015625)"/>
       <path id="CMMI12-69" d="M 1811 913 
C 1811 945 1786 971 1747 971 
C 1690 971 1683 952 1651 843 
C 1485 262 1222 64 1011 64 
C 934 64 845 83 845 275 
C 845 447 922 639 992 830 
L 1440 2018 
C 1459 2069 1504 2184 1504 2305 
C 1504 2574 1312 2816 998 2816 
C 410 2816 173 1890 173 1839 
C 173 1814 198 1782 243 1782 
C 301 1782 307 1807 333 1896 
C 486 2428 730 2682 979 2682 
C 1037 2682 1146 2682 1146 2478 
C 1146 2312 1062 2101 1011 1961 
L 563 773 
C 525 671 486 568 486 453 
C 486 166 685 -64 992 -64 
C 1581 -64 1811 869 1811 913 
z
M 1760 4013 
C 1760 4109 1683 4224 1542 4224 
C 1395 4224 1229 4083 1229 3917 
C 1229 3758 1363 3707 1440 3707 
C 1613 3707 1760 3873 1760 4013 
z
" transform="scale(0.015625)"/>
      </defs>
      <use xlink:href="#CMR17-32" transform="translate(0 36.153639) scale(0.697382)"/>
      <use xlink:href="#CMR17-38" transform="translate(31.983182 36.153639) scale(0.697382)"/>
      <use xlink:href="#CMMI12-53" transform="translate(64.464496 0) scale(0.996264)"/>
      <use xlink:href="#CMMI12-69" transform="translate(130.258935 0) scale(0.996264)"/>
     </g>
    </g>
    <g id="line2d_14">
     <path d="M 77.213341 45.259491 
L 85.213341 45.259491 
L 93.213341 45.259491 
" style="fill: none; stroke: #000000; stroke-opacity: 0.45; stroke-width: 3; stroke-linecap: round"/>
    </g>
    <g id="text_10">
     <!-- Both -->
     <g style="fill: #262626" transform="translate(99.613341 48.059491) scale(0.08 -0.08)">
      <defs>
       <path id="CMSS17-42" d="M 570 4416 
L 570 0 
L 2163 0 
C 3034 0 3667 574 3667 1200 
C 3667 1685 3251 2176 2502 2317 
C 3334 2558 3501 3040 3501 3313 
C 3501 3883 2874 4416 1997 4416 
L 570 4416 
z
M 1088 2496 
L 1088 4059 
L 1824 4059 
C 2483 4059 3002 3724 3002 3306 
C 3002 2926 2592 2496 1766 2496 
L 1088 2496 
z
M 1088 357 
L 1088 2107 
L 1939 2107 
C 2630 2107 3162 1679 3162 1206 
C 3162 772 2694 357 1984 357 
L 1088 357 
z
" transform="scale(0.015625)"/>
       <path id="CMSS17-6f" d="M 2829 1356 
C 2829 2176 2221 2816 1504 2816 
C 768 2816 173 2157 173 1356 
C 173 544 787 -64 1498 -64 
C 2227 -64 2829 563 2829 1356 
z
M 1504 337 
C 1050 337 659 709 659 1408 
C 659 2151 1114 2427 1498 2427 
C 1914 2427 2342 2126 2342 1408 
C 2342 683 1926 337 1504 337 
z
" transform="scale(0.015625)"/>
       <path id="CMSS17-68" d="M 2618 1891 
C 2618 2292 2522 2820 1798 2820 
C 1395 2820 1133 2623 947 2407 
L 947 4448 
L 474 4448 
L 474 32 
L 960 32 
L 960 1573 
C 960 1973 1114 2432 1549 2432 
C 2112 2432 2131 2056 2131 1839 
L 2131 32 
L 2618 32 
L 2618 1891 
z
" transform="scale(0.015625)"/>
      </defs>
      <use xlink:href="#CMSS17-42" transform="scale(0.996264)"/>
      <use xlink:href="#CMSS17-6f" transform="translate(62.33804 0) scale(0.996264)"/>
      <use xlink:href="#CMSS17-74" transform="translate(109.181664 0) scale(0.996264)"/>
      <use xlink:href="#CMSS17-68" transform="translate(143.01323 0) scale(0.996264)"/>
     </g>
    </g>
   </g>
  </g>
 </g>
 <defs>
  <clipPath id="pa04c49249d">
   <rect x="34.297012" y="12.96" width="125.542988" height="68.520597"/>
  </clipPath>
 </defs>
</svg>
